<svg xmlns="http://www.w3.org/2000/svg" viewBox="0 0 648.6 837.1">
  <g id="tail">
    <g>
      <path d="M664.1,523.2Z" transform="translate(-116.1 -48.6)" style="fill: none"/>
      <path d="M703.2,593.8c-.5,1.3,0,1.4,0,0Z" transform="translate(-116.1 -48.6)" style="fill: none"/>
      <path d="M591.7,682.9Z" transform="translate(-116.1 -48.6)" style="fill: none"/>
      <path d="M527.1,668.1a83.2,83.2,0,0,1-15.3,15.5c8.5,19.7,11.3,41.7,15.9,62.5A133.4,133.4,0,0,0,556.8,722C556.1,698.3,543.2,678.6,527.1,668.1Z" transform="translate(-116.1 -48.6)" style="fill: #fbcc34"/>
      <path d="M575.9,646.9c-7.6-7.7-12.5-17.1-22.9-21.6-5.6,8.8-11.2,18.2-16.8,28.3,15.8,10.6,30.3,30.5,33.2,52.3,7.2-10.5,13.6-23.7,20.1-34C587.1,662.1,582.7,653.1,575.9,646.9Z" transform="translate(-116.1 -48.6)" style="fill: #cda349"/>
      <path d="M498.6,691.9C463.3,716,370.5,690.7,355.2,680c-35-14.6-48.6,46.3-19.3,59.6,26,15.5,126,42.4,177.4,14A280.3,280.3,0,0,0,498.6,691.9Z" transform="translate(-116.1 -48.6)" style="fill: #cda349"/>
      <path d="M585.8,598.1a60,60,0,0,0-9.7-5.7c-4.6,5.8-9.1,11.9-13.6,18.5,15.9,11.4,29.1,26.4,37.5,44.5,5.2-7.7,10.1-14.4,14.9-20.3C606.7,621.2,597.1,608,585.8,598.1Z" transform="translate(-116.1 -48.6)" style="fill: #cda349"/>
      <path d="M714.1,567.8c10.2-18.8-4.3-52-26.4-47.2C698.6,534.1,708.4,550.1,714.1,567.8Z" transform="translate(-116.1 -48.6)" style="fill: #cda349"/>
      <path d="M604.6,561.4a230.9,230.9,0,0,0-17,17.2c16.4,10.8,27,25.8,38.4,43.7A135.6,135.6,0,0,1,643.9,606C636.4,587.5,624.7,565.6,604.6,561.4Z" transform="translate(-116.1 -48.6)" style="fill: #cda349"/>
      <path d="M661.7,567.3c-6.8-10.6-14.1-22.7-23-30a161.1,161.1,0,0,0-18.1,11.1c18.2,11.5,26.5,26.4,36.6,49a99.1,99.1,0,0,1,15.7-6.9C670.7,582.2,666.2,574.2,661.7,567.3Z" transform="translate(-116.1 -48.6)" style="fill: #cda349"/>
      <path d="M670.9,528.6a30.4,30.4,0,0,1-4-2.5c-3.7,1.1-7.6,2.4-11.6,3.9,12.6,16.7,25.7,35,32.2,56.1,4.9-1.4,10.1-2.1,14.6-4.6C698.4,563.4,682.5,535.7,670.9,528.6Z" transform="translate(-116.1 -48.6)" style="fill: #cda349"/>
      <path d="M536.2,653.6a107.3,107.3,0,0,1-9.1,14.5c16.1,10.5,29,30.2,29.7,53.9a144.5,144.5,0,0,0,12.6-16.1C566.5,684.1,552,664.2,536.2,653.6Z" transform="translate(-116.1 -48.6)" style="fill: #fd0"/>
      <path d="M591.7,682.9Z" transform="translate(-116.1 -48.6)" style="fill: silver"/>
      <path d="M572.1,618.1a50.2,50.2,0,0,0-9.6-7.2c-3.2,4.6-6.4,9.4-9.5,14.4,10.4,4.5,15.3,13.9,22.9,21.6s11.2,15.2,13.6,25q5.4-8.9,10.5-16.5C593.8,640,582.9,630,572.1,618.1Z" transform="translate(-116.1 -48.6)" style="fill: #fd0"/>
      <path d="M587.6,578.6c-3.9,4.3-7.7,8.9-11.5,13.8,17.6,8.3,28.2,25.9,38.8,42.7,3.8-4.8,7.5-9,11.1-12.8C614.6,604.4,604,589.4,587.6,578.6Z" transform="translate(-116.1 -48.6)" style="fill: #fd0"/>
      <path d="M620.6,548.4a178.2,178.2,0,0,0-16,13c20.1,4.2,31.8,26.1,39.3,44.6a99,99,0,0,1,13.3-8.6C647.1,574.8,638.7,559.9,620.6,548.4Z" transform="translate(-116.1 -48.6)" style="fill: #fd0"/>
      <path d="M657,532.2l-1.7-2.2a129.6,129.6,0,0,0-16.6,7.3c14.2,13.7,27.4,33.8,34.2,53.2,5-1.8,9.9-3.1,14.6-4.4C681.4,565.9,668.8,548.3,657,532.2Z" transform="translate(-116.1 -48.6)" style="fill: #fd0"/>
      <path d="M664.1,523.2Zm.7.5h0Z" transform="translate(-116.1 -48.6)" style="fill: silver"/>
      <path d="M703.2,593.8c0,1.4-.5,1.3,0,0Z" transform="translate(-116.1 -48.6)" style="fill: silver"/>
      <path d="M714.1,567.8c-5.7-17.7-15.5-33.7-26.4-47.2-7.1,1.7-13.5,3.5-20.8,5.5,15,7.5,30.4,34.8,35.2,55.4A29.4,29.4,0,0,0,714.1,567.8Z" transform="translate(-116.1 -48.6)" style="fill: #fd0"/>
      <path d="M518.6,702.6a122.5,122.5,0,0,0-6.8-19,81.5,81.5,0,0,1-13.2,8.3,280.3,280.3,0,0,1,14.7,61.7,122.7,122.7,0,0,0,14.4-7.5C525.5,731.4,520.8,717.3,518.6,702.6Z" transform="translate(-116.1 -48.6)" style="fill: #fbcc34"/>
    </g>
  </g>
  <g id="wave_arm">
    <g>
      <path d="M731.8,134.2c-56.9,2.6,12.5,148.4-78,190C596.3,352,523.7,267.1,472,318.8c0,0-12.4-7.9-4,35.9s9.9,98.2,9.9,98.2S613,442.2,623.3,440.3l-7.9-20.8C725,448,758.8,273.4,749.5,225c-6.8-.4-16.3,5.5-28.9-1.7s-13.5-17.8-13.5-17.8c8.9,19.4,32.4,16.8,51,5.3C763.4,186.6,778.6,133,731.8,134.2Z" transform="translate(-116.1 -48.6)" style="fill: #fd0"/>
      <path d="M707.1,205.5s.8,10.5,13.5,17.8,22.1,1.3,28.9,1.7-5,79.2-33.5,143-151.4,42.2-150.7,41l-57.8-3.4,2.9,51.7c209.8-7.3,228.2-76.1,247.7-246.5C739.1,222.3,716.3,225,707.1,205.5Z" transform="translate(-116.1 -48.6)" style="fill: #cda349"/>
      <path d="M749.7,183.8c-.4,25.6-33.8,25.6-34.2,0S749.3,158.2,749.7,183.8Z" transform="translate(-116.1 -48.6)" style="fill: #c1272d"/>
      <path d="M719.2,163.2c.1,9.6-11.4,9.6-11.3,0S719.3,153.6,719.2,163.2Z" transform="translate(-116.1 -48.6)" style="fill: #c1272d"/>
      <path d="M728.7,147c.1,9.6-11.4,9.6-11.3,0S728.8,137.4,728.7,147Z" transform="translate(-116.1 -48.6)" style="fill: #c1272d"/>
      <path d="M743.9,144.3c.1,9.6-11.4,9.6-11.3,0S744,134.7,743.9,144.3Z" transform="translate(-116.1 -48.6)" style="fill: #c1272d"/>
      <path d="M758.1,151.7c.1,9.6-11.3,9.6-11.2,0S758.2,142.1,758.1,151.7Z" transform="translate(-116.1 -48.6)" style="fill: #c1272d"/>
      <path d="M763.8,170.6c.1,9.7-11.4,9.7-11.3,0S763.9,161,763.8,170.6Z" transform="translate(-116.1 -48.6)" style="fill: #c1272d"/>
    </g>
  </g>
  <g id="body">
    <g>
      <path d="M576.4,372.1c-3.6-13.6-5.2-45.8-19.7-56.8-33.3-25-73.2-14.1-73.2-14.1s2.2,2.6,6.1,6.9c-43.1-6.7-108.4,3.7-113.3,2.1,0,0-108.5-13.6-132.6,8.1-99.3,61.4-105.9,351.5-70.9,448.8,23.6,58.4,34.3,46,40.5,62.2s21.1,49.3,52,53.1c91.9,14.8,58.6-24.5,118.3-23.8,55,2.6,23.9,38.1,113.4,23.8,30.9-3.8,45.7-36.8,52-53.1,77.9-75.9,71-263.3,35.8-404.1C585.6,424,579,381.5,576.4,372.1Z" transform="translate(-116.1 -48.6)" style="fill: #fd0"/>
      <path d="M580,538.7C609.3,916.8,203.4,934,187.5,554.9,176.5,164.6,553.1,190.8,580,538.7Z" transform="translate(-116.1 -48.6)" style="fill: #ffe89b"/>
      <path d="M607.9,557c-1.5-68.1-24.2-143.5-24.2-143.5s12.9,108.5,1,187C567,717.6,505.8,809.8,381.2,809.8c-149.3,0-203.9-168.8-223.7-280-5.8,110.6-9.5,237.5,48.8,290,50.2-34.8,101.2,16,131.7,55.4,17.1-22.3,65-21.7,84.2-2.9,18.7-42,98.2-91.3,128-45.5C613.8,787.8,610.7,614.7,607.9,557Z" transform="translate(-116.1 -48.6)" style="fill: #fbcc34"/>
    </g>
  </g>
  <g id="cone">
    <g>
      <polygon points="228.8 473.8 228.3 473.4 227.9 474.6 228.8 473.8" style="fill: none"/>
      <polygon points="212.8 518.9 213.2 518.5 213 518.4 212.8 518.9" style="fill: none"/>
      <polygon points="204.8 511.9 198.8 517.9 207.2 524.8 212.8 518.9 213 518.4 204.8 511.9" style="fill: #c69c6d"/>
      <polygon points="203.5 546.4 205 541.9 201.3 539.8 203.5 546.4" style="fill: #c69c6d"/>
      <polygon points="212.7 504.2 216.8 507.2 220.3 497.1 220 497 212.7 504.2" style="fill: #c69c6d"/>
      <polygon points="224.3 485.1 227.6 475.5 220.8 482.2 224.3 485.1" style="fill: #c69c6d"/>
      <polygon points="205.1 511.7 213.2 518 216.7 507.6 212.4 504.4 205.1 511.7" style="fill: #c69c6d"/>
      <polygon points="204.5 468.9 193.9 477.3 203.1 484.1 212.4 475.6 204.5 468.9" style="fill: #c69c6d"/>
      <polygon points="196.8 505.7 191.7 510.7 192.3 512.7 198.4 517.7 204.5 511.7 196.8 505.7" style="fill: #c69c6d"/>
      <polygon points="181 468.4 177.7 468.4 179.7 474.7 184.5 471 181 468.4" style="fill: #c69c6d"/>
      <polygon points="187.7 468.4 181.7 468.4 184.8 470.7 187.7 468.4" style="fill: #c69c6d"/>
      <polygon points="193.6 477.6 185.6 483.8 195.5 491.2 202.8 484.4 193.6 477.6" style="fill: #c69c6d"/>
      <polygon points="195.5 491.7 188.2 498.4 196.8 505.1 204 498.1 195.5 491.7" style="fill: #c69c6d"/>
      <polygon points="230 468.4 222.6 468.4 228.5 473 230 468.4" style="fill: #c69c6d"/>
      <polygon points="198.5 518.2 195.2 521.4 197.2 527.3 201.7 530.6 207 525.1 198.5 518.2" style="fill: #c69c6d"/>
      <polygon points="204.3 498.3 197.1 505.4 204.8 511.4 212.1 504.2 204.3 498.3" style="fill: #c69c6d"/>
      <path d="M336.6,531.1l-8.4,8.2c11.3,8.2,7,7.5,12.1-5.1Z" transform="translate(-116.1 -48.6)" style="fill: #c69c6d"/>
      <polygon points="203.2 484.6 195.8 491.5 204.2 497.8 211.5 490.7 203.2 484.6" style="fill: #c69c6d"/>
      <polygon points="211.8 490.4 220.2 482.2 212.7 475.8 203.5 484.4 211.8 490.4" style="fill: #c69c6d"/>
      <path d="M329.1,524.2l7.5,6.3c8.9-9.6,10.7-6.3,1.4-13.5h-1.3Z" transform="translate(-116.1 -48.6)" style="fill: #c69c6d"/>
      <polygon points="182 481.6 183.2 485.2 185 483.9 182 481.6" style="fill: #c69c6d"/>
      <polygon points="212.7 475.3 220.1 468.4 205.2 468.4 204.8 468.7 212.7 475.3" style="fill: #c69c6d"/>
      <polygon points="212.4 503.9 219.7 496.7 211.8 491 204.6 498.1 212.4 503.9" style="fill: #c69c6d"/>
      <polygon points="196.5 505.4 188 498.7 187.7 498.9 191.5 510.3 196.5 505.4" style="fill: #c69c6d"/>
      <polygon points="184.8 471.2 179.9 475.1 181.8 481 185.3 483.6 193.2 477.4 184.8 471.2" style="fill: #c69c6d"/>
      <polygon points="204.2 468.7 203.9 468.4 188.3 468.4 185.1 470.9 193.5 477.1 204.2 468.7" style="fill: #c69c6d"/>
      <polygon points="185.3 484.1 183.4 485.6 187.4 497.8 187.9 498.2 195.2 491.5 185.3 484.1" style="fill: #c69c6d"/>
      <polygon points="220.4 496.7 220.5 496.5 220.3 496.7 220.4 496.7" style="fill: #c69c6d"/>
      <polygon points="210.1 527 212.5 519.8 207.5 525 210.1 527" style="fill: #c69c6d"/>
      <polygon points="187.6 498.4 187.6 498.5 187.6 498.5 187.6 498.4" style="fill: #c69c6d"/>
      <polygon points="192.5 513.4 195.1 521 198.2 517.9 192.5 513.4" style="fill: #c69c6d"/>
      <polygon points="199.3 533.7 201.1 539.2 205.1 541.5 207.3 535.2 201.7 531.1 199.3 533.7" style="fill: #c69c6d"/>
      <polygon points="202 530.8 207.4 534.8 209.9 527.5 207.3 525.3 202 530.8" style="fill: #c69c6d"/>
      <polygon points="197.4 527.9 199.1 533.3 201.4 530.9 197.4 527.9" style="fill: #c69c6d"/>
      <polygon points="201.3 539.8 205 541.9 205.1 541.5 201.1 539.2 201.3 539.8" style="fill: #603813"/>
      <polygon points="201.7 531.1 207.3 535.2 207.4 534.8 202 530.8 201.7 531.1" style="fill: #603813"/>
      <polygon points="201.7 530.6 197.2 527.3 197.4 527.9 201.4 530.9 201.7 530.6" style="fill: #603813"/>
      <polygon points="198.4 517.7 192.3 512.7 192.5 513.4 198.2 517.9 198.4 517.7" style="fill: #603813"/>
      <polygon points="207.3 525.3 209.9 527.5 210.1 527 207.5 525 207.3 525.3" style="fill: #603813"/>
      <polygon points="198.5 518.2 207 525.1 207.2 524.8 198.8 517.9 198.5 518.2" style="fill: #603813"/>
      <polygon points="197.1 505.4 196.8 505.7 204.5 511.7 204.8 511.4 197.1 505.4" style="fill: #603813"/>
      <polygon points="204.8 511.9 213 518.4 213.2 518 205.1 511.7 204.8 511.9" style="fill: #603813"/>
      <polygon points="187.9 498.2 187.4 497.8 187.6 498.4 187.6 498.5 187.9 498.2" style="fill: #603813"/>
      <polygon points="196.8 505.1 188.2 498.4 188 498.7 196.5 505.4 196.8 505.1" style="fill: #603813"/>
      <polygon points="195.5 491.2 185.6 483.8 185.3 484.1 195.2 491.5 195.5 491.2" style="fill: #603813"/>
      <polygon points="185.3 483.6 181.8 481 182 481.6 185 483.9 185.3 483.6" style="fill: #603813"/>
      <polygon points="212.4 504.4 216.7 507.6 216.8 507.2 212.7 504.2 212.4 504.4" style="fill: #603813"/>
      <polygon points="212.4 503.9 204.6 498.1 204.3 498.3 212.1 504.2 212.4 503.9" style="fill: #603813"/>
      <polygon points="204.2 497.8 195.8 491.5 195.5 491.7 204 498.1 204.2 497.8" style="fill: #603813"/>
      <polygon points="211.8 490.4 203.5 484.4 203.2 484.6 211.5 490.7 211.8 490.4" style="fill: #603813"/>
      <polygon points="193.5 477.1 185.1 470.9 184.8 471.2 193.2 477.4 193.5 477.1" style="fill: #603813"/>
      <polygon points="184.8 470.7 181.7 468.4 181 468.4 184.5 471 184.8 470.7" style="fill: #603813"/>
      <polygon points="211.8 491 219.7 496.7 220 496.4 212.1 490.7 211.8 491" style="fill: #603813"/>
      <polygon points="220 497 220.3 497.1 220.4 496.7 220.3 496.7 220 497" style="fill: #603813"/>
      <polygon points="203.1 484.1 193.9 477.3 193.6 477.6 202.8 484.4 203.1 484.1" style="fill: #603813"/>
      <polygon points="220.2 482.2 220.5 481.9 213 475.6 212.7 475.8 220.2 482.2" style="fill: #603813"/>
      <polygon points="220.5 482.4 224.2 485.6 224.3 485.1 220.8 482.2 220.5 482.4" style="fill: #603813"/>
      <polygon points="212.7 475.3 204.8 468.7 204.5 468.9 212.4 475.6 212.7 475.3" style="fill: #603813"/>
      <polygon points="203.9 468.4 204.2 468.7 204.5 468.4 203.9 468.4" style="fill: #603813"/>
      <polygon points="228.3 473.4 228.5 473 222.6 468.4 222 468.4 228.3 473.4" style="fill: #603813"/>
      <polygon points="185.1 470.9 188.3 468.4 187.7 468.4 184.8 470.7 185.1 470.9" style="fill: #603813"/>
      <polygon points="184.8 471.2 184.5 471 179.7 474.7 179.9 475.1 184.8 471.2" style="fill: #603813"/>
      <polygon points="184.8 470.7 184.5 471 184.8 471.2 185.1 470.9 184.8 470.7" style="fill: #603813"/>
      <polygon points="205.2 468.4 204.5 468.4 204.8 468.7 205.2 468.4" style="fill: #603813"/>
      <polygon points="204.5 468.9 204.2 468.7 193.5 477.1 193.9 477.3 204.5 468.9" style="fill: #603813"/>
      <polygon points="185.3 484.1 185 483.9 183.2 485.2 183.4 485.6 185.3 484.1" style="fill: #603813"/>
      <polygon points="193.6 477.6 193.2 477.4 185.3 483.6 185.6 483.8 193.6 477.6" style="fill: #603813"/>
      <polygon points="185.3 483.6 185 483.9 185.3 484.1 185.6 483.8 185.3 483.6" style="fill: #603813"/>
      <polygon points="193.5 477.1 193.2 477.4 193.6 477.6 193.9 477.3 193.5 477.1" style="fill: #603813"/>
      <polygon points="204.5 468.4 204.5 468.4 204.5 468.4 204.5 468.4" style="fill: #603813"/>
      <polygon points="204.8 468.7 204.5 468.4 204.5 468.4 204.2 468.7 204.5 468.9 204.8 468.7" style="fill: #603813"/>
      <polygon points="188 498.7 187.6 498.5 187.6 498.5 187.7 498.9 188 498.7" style="fill: #603813"/>
      <polygon points="212.7 475.8 212.4 475.6 203.1 484.1 203.5 484.4 212.7 475.8" style="fill: #603813"/>
      <polygon points="203.2 484.6 202.8 484.4 195.5 491.2 195.8 491.5 203.2 484.6" style="fill: #603813"/>
      <polygon points="195.5 491.7 195.2 491.5 187.9 498.2 188.2 498.4 195.5 491.7" style="fill: #603813"/>
      <polygon points="213 475.6 220.7 468.4 220.1 468.4 212.7 475.3 213 475.6" style="fill: #603813"/>
      <polygon points="187.9 498.2 187.6 498.5 188 498.7 188.2 498.4 187.9 498.2" style="fill: #603813"/>
      <polygon points="195.5 491.2 195.2 491.5 195.5 491.7 195.8 491.5 195.5 491.2" style="fill: #603813"/>
      <polygon points="203.1 484.1 202.8 484.4 203.2 484.6 203.5 484.4 203.1 484.1" style="fill: #603813"/>
      <polygon points="212.4 475.6 212.7 475.8 213 475.6 212.7 475.3 212.4 475.6" style="fill: #603813"/>
      <polygon points="191.5 510.3 191.7 510.7 196.8 505.7 196.5 505.4 191.5 510.3" style="fill: #603813"/>
      <polygon points="212.1 490.7 220.5 482.4 220.2 482.2 211.8 490.4 212.1 490.7" style="fill: #603813"/>
      <polygon points="211.8 491 211.5 490.7 204.2 497.8 204.6 498.1 211.8 491" style="fill: #603813"/>
      <polygon points="227.6 475.5 227.9 474.6 220.5 481.9 220.8 482.2 227.6 475.5" style="fill: #603813"/>
      <polygon points="204.3 498.3 204 498.1 196.8 505.1 197.1 505.4 204.3 498.3" style="fill: #603813"/>
      <polygon points="196.8 505.1 196.5 505.4 196.8 505.7 197.1 505.4 196.8 505.1" style="fill: #603813"/>
      <polygon points="204.2 497.8 204 498.1 204.3 498.3 204.6 498.1 204.2 497.8" style="fill: #603813"/>
      <polygon points="211.5 490.7 211.8 491 212.1 490.7 211.8 490.4 211.5 490.7" style="fill: #603813"/>
      <polygon points="220.5 482.4 220.8 482.2 220.5 481.9 220.2 482.2 220.5 482.4" style="fill: #603813"/>
      <path d="M336.1,545l.3.3c.2-.1.4-.9.4-1Z" transform="translate(-116.1 -48.6)" style="fill: #603813"/>
      <polygon points="198.5 518.2 198.2 517.9 195.1 521 195.2 521.4 198.5 518.2" style="fill: #603813"/>
      <polygon points="204.8 511.4 205.1 511.7 212.4 504.4 212.1 504.2 204.8 511.4" style="fill: #603813"/>
      <polygon points="204.8 511.9 204.5 511.7 198.4 517.7 198.8 517.9 204.8 511.9" style="fill: #603813"/>
      <polygon points="212.4 503.9 212.7 504.2 220 497 219.7 496.7 212.4 503.9" style="fill: #603813"/>
      <polygon points="198.4 517.7 198.2 517.9 198.5 518.2 198.8 517.9 198.4 517.7" style="fill: #603813"/>
      <polygon points="204.8 511.4 204.5 511.7 204.8 511.9 205.1 511.7 204.8 511.4" style="fill: #603813"/>
      <polygon points="212.1 504.2 212.4 504.4 212.7 504.2 212.4 503.9 212.1 504.2" style="fill: #603813"/>
      <polygon points="220 497 220.3 496.7 220 496.4 219.7 496.7 220 497" style="fill: #603813"/>
      <polygon points="201.7 530.6 202 530.8 207.3 525.3 207 525.1 201.7 530.6" style="fill: #603813"/>
      <path d="M323.3,573.4l.3.2c.4-.5,5.6-5.5,5.3-6.1Z" transform="translate(-116.1 -48.6)" style="fill: #603813"/>
      <polygon points="201.7 531.1 201.4 530.9 199.1 533.3 199.3 533.7 201.7 531.1" style="fill: #603813"/>
      <polygon points="201.4 530.9 201.7 531.1 202 530.8 201.7 530.6 201.4 530.9" style="fill: #603813"/>
      <polygon points="207.3 525.3 207.5 525 207.2 524.8 207 525.1 207.3 525.3" style="fill: #603813"/>
      <path d="M344.9,521.6l1.6-4.6H294.1l2,6.2c23.3,6.4,30.1,31.3,30.6,51.8.5-1,2.2-7.3,3-7.9h-.2c5.3-14,9.6-31.2,15.8-44.6l-.5-.4Z" transform="translate(-116.1 -48.6)" style="fill: #8c6239"/>
      <path d="M355.4,505.9c11.1-61.8-96.8-44.1-65.3,12.4-2.7,3-2,7.3-1.8,10.9s6.1,4.6,7.4.9a17.1,17.1,0,0,1,1.4-2.7,4.1,4.1,0,0,0,6.8-1c2.8,2.2.9,5.9,3.8,8.3s5.9.3,6.9-2.3a6.3,6.3,0,0,0,6.6-.4,31.5,31.5,0,0,1-.4,7.5c-.7,3.3,3.3,5.7,6.3,3.3,4.6-3.6,3.4-8.5,4.5-13.6a4.7,4.7,0,0,0,4-.4c-1.1,4.4,6.1,6.3,7.5,1.5,4.2,3,11,.6,7-4.8C353.1,520.2,361.5,511.4,355.4,505.9Z" transform="translate(-116.1 -48.6)" style="fill: #fed9b9"/>
      <path d="M355.4,505.9a27.6,27.6,0,0,0-2.5-22.8c-8.3,25.5-39.1,34.6-63.5,36.1-1.9,3-1.3,6.7-1.1,10s6.1,4.6,7.4.9a17.1,17.1,0,0,1,1.4-2.7,4.1,4.1,0,0,0,6.8-1c2.8,2.2.9,5.9,3.8,8.3s5.9.3,6.9-2.3a6.3,6.3,0,0,0,6.6-.4,31.5,31.5,0,0,1-.4,7.5c-.7,3.3,3.3,5.7,6.3,3.3,4.6-3.6,3.4-8.5,4.5-13.6a4.7,4.7,0,0,0,4-.4c-1.1,4.4,6.1,6.3,7.5,1.5,4.2,3,11,.6,7-4.8C353.1,520.2,361.5,511.4,355.4,505.9Z" transform="translate(-116.1 -48.6)" style="fill: #ee9cb0"/>
      <path d="M356.6,468.1c-.2-40.8-71.3-40.8-71.4,0,.4,8.1,4.9,15.8-1.3,23-1.7,2.4,1.1,6.1,4.3,5a17.8,17.8,0,0,0,7.9-5.6c2.5,3.9.6,9.2,1.9,13.5,5.6,13.2,13.4,4.5,11.5-6,5.8,2.4,4.2,10.5,10.8,12.1,4.2,1.1,5.4-3.2,4.4-6.1,3.4.3,3.5-3.6,6.7-3.9a23.1,23.1,0,0,1,.5,4.6c.2,3.8,6.4,4.7,7.5.9s2.5-8.3,3.8-12.4c5.8,18.9,14.2,9.7,12-5.1C353.4,481.3,357.4,475,356.6,468.1Z" transform="translate(-116.1 -48.6)" style="fill: #ecf5e4"/>
      <path d="M334.5,474.6c-14.6,7.6-31.9,8.8-48,11.5-8,12.6,3,12.6,9.6,4.4,2.5,3.9.6,9.2,1.9,13.5,5.6,13.2,13.4,4.5,11.5-6,5.8,2.4,4.2,10.5,10.8,12.1,4.2,1.1,5.4-3.2,4.4-6.1,3.4.3,3.5-3.6,6.7-3.9a23.1,23.1,0,0,1,.5,4.6c.2,3.8,6.4,4.7,7.5.9s2.5-8.3,3.8-12.4c1.4,4.5,5.9,15.9,11,8.1,2.4-6.5.4-13.2.5-19.8,4.4-12.9,1.4-28.2-10-36.6C351.3,456.2,346.6,468.9,334.5,474.6Z" transform="translate(-116.1 -48.6)" style="fill: #d0e6bb"/>
      <path d="M293.4,502.5a1.4,1.4,0,0,1-2.7,0A1.4,1.4,0,1,1,293.4,502.5Z" transform="translate(-116.1 -48.6)" style="fill: #fff"/>
      <path d="M343.6,445.1c6.4-17.3-16.4-32.4-29.5-19.5C300.5,427.3,290,436,294,447c-18.9,1.3-7.3,18.2,5.7,11.6l.6.3c-.4,10.1,16.9,14.8,25.1,9,8.1,12.5,35.4,7.9,34.9-7.7C360.3,452.4,353,445.9,343.6,445.1Z" transform="translate(-116.1 -48.6)" style="fill: #fff"/>
      <path d="M335.4,425c.2,11.3-17.4,11.3-17.3,0S335.6,413.8,335.4,425Z" transform="translate(-116.1 -48.6)" style="fill: #b32c39"/>
      <path d="M334.1,424.1c.2,9.5-14.8,9.5-14.7,0S334.3,414.5,334.1,424.1Z" transform="translate(-116.1 -48.6)" style="fill: #d55b55"/>
      <path d="M328.5,420.4l-1.1-.9c4.3-5.5,11.9-7.9,12.2-8l.4,1.3S332.5,415.2,328.5,420.4Z" transform="translate(-116.1 -48.6)" style="fill: #8f6c56"/>
      <path d="M305.3,451c-.8-3.1-4.5-2.7-6.8-3.7-.5-.3-1,.5-.5.7,2.1,1.1,5.6.5,6.4,3.2C304.5,451.7,305.4,451.5,305.3,451Z" transform="translate(-116.1 -48.6)" style="fill: #e8e8e8"/>
      <path d="M340.5,445.2c-6.2,2.3-14,4.1-15.1,11.7a.4.4,0,1,0,.8.3C326.7,447.8,343,447.1,340.5,445.2Z" transform="translate(-116.1 -48.6)" style="fill: #e8e8e8"/>
      <path d="M318.6,433c-5.7-2.5-2-6.6-4-5.5C312.3,430.2,319.6,435.7,318.6,433Z" transform="translate(-116.1 -48.6)" style="fill: #e8e8e8"/>
      <path d="M337.6,430.4c-2.1-2,2.2,3.9-7.6,4.7C327.6,437.2,339.4,435.1,337.6,430.4Z" transform="translate(-116.1 -48.6)" style="fill: #e8e8e8"/>
    </g>
  </g>
  <g id="rest_arm">
    <g>
      <path d="M281.7,296.6s-101-8.6-136.5,57.5S107.1,488.9,135,532.2s84.9,79.6,145.6,84.4,86.5-3.5,77.9-37.2-29.6-31.5-45.1-22.9-63.4-15.1-95.7-44.3S178,464,178,464s-2.2-26,7.5-48.7S281.7,296.6,281.7,296.6Z" transform="translate(-116.1 -48.6)" style="fill: #fd0"/>
      <path d="M140.2,465.3c42.6-12.1,28-63.3,62.3-83.3-21.7,25.9-25.9,54.3-26.1,86.4C168.7,454.6,148.9,460.5,140.2,465.3Z" transform="translate(-116.1 -48.6)" style="fill: #fbcc34"/>
      <path d="M357.8,570.4c-27.7-63.1-35.6,56.9-179-101.3-.6-28.8,6.9-66.3,23.7-85.8-12.6,6.5-33.1,59.6-29,81.2-13.2-13.3-38.1.9-37.6,2.2,54.7-26,78.1,85.9,164.1,94.7,15,3.3,28.8-11.3,39-6.7,84.6,106.6-185.8,61.3-215.9-48.4C135.1,594.4,380.1,677.7,357.8,570.4Z" transform="translate(-116.1 -48.6)" style="fill: #cda349"/>
      <path d="M354.4,265.1h0Zm0,0Z" transform="translate(-116.1 -48.6)"/>
    </g>
  </g>
  <g id="head">
    <g>
      <path d="M378,358.3Z" transform="translate(-116.1 -48.6)" style="fill: #b6b6b6"/>
      <path d="M255.1,285.9C240,402.8,503.4,403.2,488,284.8,446.3,370.6,302.3,365.3,255.1,285.9Z" transform="translate(-116.1 -48.6)" style="fill: #c1272d"/>
      <path d="M243.1,176.3s-8.9-40.1,2.3-84.4S255.7,44.7,271.5,55,326,104.5,326,104.5C292.5,97.9,250.7,147.2,243.1,176.3Z" transform="translate(-116.1 -48.6)" style="fill: #cda349"/>
      <path d="M244.6,158c.2,3.2.3-114.1,23.7-95.5,11.8,7.6,42.8,35.8,42.8,35.8C289.4,102.3,251.1,138.1,244.6,158Z" transform="translate(-116.1 -48.6)" style="fill: #841618"/>
      <path d="M333.8,103.9s-17.9,9.8-22,11.7,3.7-9,1.7-15.2c-2.8-8.5-19.7-26.8-30.3-36.4S333.8,103.9,333.8,103.9Z" transform="translate(-116.1 -48.6)" style="fill: #fd0"/>
      <path d="M501.8,174.9s8.9-40.1-2.2-84.5-10.4-47.1-26.2-36.8-54.5,49.5-54.5,49.5C452.4,96.5,494.2,145.8,501.8,174.9Z" transform="translate(-116.1 -48.6)" style="fill: #cda349"/>
      <path d="M500.3,156.5c-.1,3.3-.2-114-23.7-95.4-11.8,7.5-42.7,35.8-42.7,35.8C455.5,100.9,493.9,136.6,500.3,156.5Z" transform="translate(-116.1 -48.6)" style="fill: #841618"/>
      <path d="M411.1,102.5s17.9,9.7,22,11.6-3.7-9-1.7-15.1c2.8-8.5,19.7-26.8,30.3-36.4S411.1,102.5,411.1,102.5Z" transform="translate(-116.1 -48.6)" style="fill: #fd0"/>
      <path d="M509.7,174.2c-11.7,16.2-35.2,12.8-40,8.7,3.6,1.6,32.8-1.2,34.3-20.3-15.9-29.2-41.7-52-78.4-63-12.1,1.7-32.5,28.3-33.2,29.9S397.6,105,405.2,95a183,183,0,0,0-22.9-2.3c6.8.6,13.6,1.5,13.6,1.5-17.9,10-19.3,73.6-20.2,70.9-.1,1.7-7.1-56.9-24.8-71.2,0,0,6-.7,12.7-1.2a191.1,191.1,0,0,0-19.2,1.6c7.6,9.6,13.9,35.9,13.2,35.2-1-2.4-22.7-29.8-35.5-30.7-38.3,10.6-65.1,34-81.4,64,1.3,19.5,30.7,22.5,34.5,20.9-4.9,4.2-28.9,7.2-40.3-9C135.4,405.1,610.3,404.5,509.7,174.2Z" transform="translate(-116.1 -48.6)" style="fill: #fd0"/>
      <path d="M352.5,382.4h.2C352.6,382.4,352.6,382.3,352.5,382.4Z" transform="translate(-116.1 -48.6)"/>
      <path d="M335.1,433.4Z" transform="translate(-116.1 -48.6)"/>
      <path d="M410,388.9c-.8,44.1-66.4,44.1-67.1,0S409.3,344.7,410,388.9Z" transform="translate(-116.1 -48.6)"/>
      <path d="M408.3,388.9c-.7,41.9-63,41.9-63.7,0S407.6,347,408.3,388.9Z" transform="translate(-116.1 -48.6)" style="fill: #b4b9bb"/>
      <path d="M398,396.6l-9.7-4.6c1.1-2.8,2.1-5.1,1.9-7.2l10.1,3.1-7.8-7.1-2.3-12.2c-5.5-.2-4.9.4-9.7-2.7l-7.2,8-11.1,2.2,9.2,2.9c-.5,1.3-1.1,3-1.5,4.3l-10.1-4.9c.6.9,2.9,9.9,2.9,9.9s-6,10-12.2,19.6c9.5,15.1,35,17.5,47.5,4.9L395.4,400Zm-18.7-14,1.2.4-.7,2-1.2-.4Zm4.6,9-.7-.3-.4,1-4.1-1.3.3-1-.8-.3.4-.9.9.3-.3.9,3.8,1.3.3-1,.9.3Zm-.9-3.5-.2.8-2.1-.7.3-.8,1,.3,1.2-3.8,1.1.3Zm3.5-.9-1.2-.4.7-2,1.2.3Z" transform="translate(-116.1 -48.6)"/>
      <path d="M382,387.7l-1-.3-.3.8,2.1.7,1.5-4.7-1.1-.3Z" transform="translate(-116.1 -48.6)" style="fill: #fff"/>
      <rect x="378.5" y="383.1" width="2.1" height="1.26" transform="translate(-219.1 577) rotate(-71.9)" style="fill: #fff"/>
      <rect x="385.2" y="385.3" width="2.1" height="1.26" transform="translate(-216.6 584.8) rotate(-71.9)" style="fill: #fff"/>
      <polygon points="266.9 342.7 263.1 341.4 263.4 340.5 262.5 340.1 262.2 341.1 263 341.4 262.6 342.4 266.8 343.7 267.1 342.7 267.9 343 268.2 342 267.2 341.7 266.9 342.7" style="fill: #fff"/>
      <path d="M358.7,103c12,24.4,17.1,62.1,17.1,62.1s2.7-35.7,12.1-62.4c1.7-5.1,8.2-8.5,8.2-8.5-7.6-1.9-37.3-2.1-45.1-.3C351,93.9,357.2,99.9,358.7,103Z" transform="translate(-116.1 -48.6)" style="fill: #cda349"/>
      <path d="M357.8,129.5c.6.5-5.7-25.5-13.3-35.2a169.2,169.2,0,0,0-22.3,4.5C334.9,99.6,356.8,127.2,357.8,129.5Z" transform="translate(-116.1 -48.6)" style="fill: #cda349"/>
      <path d="M392.5,129.5c.8-1.7,21-28.2,33.2-29.9A152.5,152.5,0,0,0,405.3,95C397.8,104.9,391.9,130.2,392.5,129.5Z" transform="translate(-116.1 -48.6)" style="fill: #cda349"/>
      <path d="M245.8,183.7c15.5,8.1,29.5,0,29.5,0-4,1.6-33.1-1.4-34.5-20.9-2.1,3.8-4,7.8-5.8,11.9A40.8,40.8,0,0,0,245.8,183.7Z" transform="translate(-116.1 -48.6)" style="fill: #cda349"/>
      <path d="M496.4,176.3a39.7,39.7,0,0,1-26.6,6.6c4.7,4.1,28.6,7.4,40.1-8.7-1.8-4-3.7-7.9-5.7-11.6C502.8,168.5,500.4,173.6,496.4,176.3Z" transform="translate(-116.1 -48.6)" style="fill: #cda349"/>
      <path d="M377.7,328.1c-86,2.4-134.3-54.1-155.9-99.9-8.7,161.8,308.1,160.2,301.6.9C504,273.1,466.9,325.6,377.7,328.1Z" transform="translate(-116.1 -48.6)" style="fill: #fbcc34"/>
      <path d="M520.9,221.3s-30.1,14-54.7,30.6c-14.7,9.9-21.2,31.8-35.6,21-38.4-28.6-38.5-45.6-57-45s-19.2,16.4-57.6,45c-23,18.1-36.5-35.7-92.3-51.6C215,372.9,533,374,520.9,221.3Z" transform="translate(-116.1 -48.6)" style="fill: #ffe89b"/>
      <path d="M385.8,267.1c-15.4-1-10-15.1-10.9-23.6a.6.6,0,0,0-1.1-.4c-1.7-2.1-.5,16.1-.8,16.1-3.5,11-17.5,10.1-23.2.2,2.6,11.6,20.7,11.8,24.1.7,3.1,11,21.9,10.8,24.2-.7C395,261.9,395,266.7,385.8,267.1Z" transform="translate(-116.1 -48.6)"/>
      <path d="M373.7,244.9c13.6-6.7,11.2-15.3-.9-14.8S361.5,238.9,373.7,244.9Z" transform="translate(-116.1 -48.6)" style="fill: #ba7c97"/>
      <path d="M374.3,232.6c7.5-3.9,9.3,4.3,8.7,1.8s-4.5-4.2-8.5-4.3-9.5,1.1-10.1,4.3,1.5-5.7,9-1.9Z" transform="translate(-116.1 -48.6)" style="fill: #f8a5c9"/>
      <path d="M322.5,239.9c-.4,28.1-38.4,28.1-38.9,0S322.1,211.9,322.5,239.9Z" transform="translate(-116.1 -48.6)" style="fill: #ff1ac6;opacity: 0.27"/>
      <path d="M312.6,234.4c-.4,0-32.4-16-32.7-16.1a.8.8,0,0,1-.4-1c.2-.4.6-.6.9-.4l32.5,16C313.5,233.2,313.3,234.4,312.6,234.4Z" transform="translate(-116.1 -48.6)"/>
      <path d="M313.6,239.9l-36-.9a.8.8,0,0,1-.7-.8.7.7,0,0,1,.8-.7l35.9.9A.8.8,0,0,1,313.6,239.9Z" transform="translate(-116.1 -48.6)"/>
      <path d="M281,262.9a.8.8,0,0,1-.3-1.5L311.4,244a.7.7,0,0,1,1,.3.9.9,0,0,1-.3,1C311.7,245.5,281.4,262.9,281,262.9Z" transform="translate(-116.1 -48.6)"/>
      <path d="M419.2,239.9c.4,28.1,38.5,28.1,38.9,0S419.6,211.9,419.2,239.9Z" transform="translate(-116.1 -48.6)" style="fill: #ff1ac6;opacity: 0.27"/>
      <path d="M429.1,234.4c.4,0,32.4-16,32.8-16.1a.8.8,0,0,0,.3-1,.6.6,0,0,0-.9-.4l-32.4,16C428.2,233.2,428.4,234.4,429.1,234.4Z" transform="translate(-116.1 -48.6)"/>
      <path d="M428.1,239.9l36-.9a.8.8,0,0,0,.7-.8c0-.4-.3-.8-.7-.7l-36,.9A.8.8,0,0,0,428.1,239.9Z" transform="translate(-116.1 -48.6)"/>
      <path d="M460.7,262.9c.7,0,1-1.2.4-1.5L430.3,244a.6.6,0,0,0-.9.3.7.7,0,0,0,.3,1C430.1,245.5,460.3,262.9,460.7,262.9Z" transform="translate(-116.1 -48.6)"/>
      <path d="M352.2,275c14.1,2.4,30,3.5,44.2-.2-10.1,8.8-35,6.7-44.2.2Z" transform="translate(-116.1 -48.6)" style="fill: #fbcc34"/>
      <path d="M355.7,190c-14.1-28.5-41.2-39-65.8-11.1-5.1,23.8,40.3,35.5,62.5,18.7-.2-.9-.3-1.8-.5-2.6,5,14.3,3.1,42.1,3.1,42.1l5.4-5.2S365.4,211.1,355.7,190Z" transform="translate(-116.1 -48.6)" style="fill: #cda349"/>
      <path d="M393,190c14.1-28.5,41.2-39,65.9-11.1,5,23.8-40.3,35.5-62.6,18.7l.6-2.6c-5.1,14.3-3.2,42.1-3.2,42.1l-5.4-5.2S383.3,211.1,393,190Z" transform="translate(-116.1 -48.6)" style="fill: #cda349"/>
    </g>
  </g>
  <g id="closed_eyes">
    <g>
      <path d="M397.4,199.2c21.2,6.8,43.2,1.9,62.6-7.8-14.1,18.2-45,23.9-62.6,7.8Z" transform="translate(-116.1 -48.6)"/>
      <path d="M351,199.2c-21.2,6.8-43.2,1.9-62.6-7.8,14.1,18.2,45,23.9,62.6,7.8Z" transform="translate(-116.1 -48.6)"/>
    </g>
  </g>
  <g id="open_eyes">
    <g>
      <path d="M352.2,196.1c-20.8,6.7-41.6,3.4-60.6-5.9-.3-.2-3,1.2-3.3,1,13.9,18.2,48,23,65.6,6.9Z" transform="translate(-116.1 -48.6)"/>
      <path d="M352.2,196.6c-18.2,14.1-47.8,9.3-56.4-9.9C311.4,154.5,346,168,352.2,196.6Z" transform="translate(-116.1 -48.6)" style="fill: #80ff06"/>
      <path d="M352.1,196.7c-18.2,14.1-48.2,9.2-56.9-10l5.1-8.1c7.8,26.6,32.3,31.5,47.1,7.3Z" transform="translate(-116.1 -48.6)" style="fill: #49a800"/>
      <path d="M352.3,197c-3.7-29.9-39.1-46.4-57.2-13.2-4,7.2-12.8,7.8-12.8,7.8s8,.9,12.1-3.1,14.8-18.8,15.8-14.4c-3.2,5.8-2.2,22.9,1.7,27.6,0,0,3.6,2.7,11.9,3.2s10-.8,10-.8,5.5-6.3,6.8-13.3-.2-12.5,1-11.9C345.2,180.9,352.3,197,352.3,197Z" transform="translate(-116.1 -48.6)"/>
      <path d="M330.6,181.3c0,6.5,5.6,6.5,5.6,0S330.6,174.8,330.6,181.3Z" transform="translate(-116.1 -48.6)" style="fill: #fff"/>
      <path d="M396.6,196.1c20.7,6.7,41.5,3.4,60.5-5.9.3-.2,3,1,3.3.8-14,18.2-48,23.2-65.5,7.1Z" transform="translate(-116.1 -48.6)"/>
      <path d="M396.5,196.6c18.3,14.1,47.8,9.3,56.5-9.9C437.4,154.5,402.8,168,396.5,196.6Z" transform="translate(-116.1 -48.6)" style="fill: #80ff06"/>
      <path d="M396.6,196.8c18.2,14.1,48.3,9.1,56.9-10.1l-5.1-8.1c-7.8,26.6-32.3,31.5-47.1,7.3Z" transform="translate(-116.1 -48.6)" style="fill: #49a800"/>
      <path d="M396.4,197.1c3.7-30,39.1-46.5,57.2-13.3,4,7.2,12.8,7.8,12.8,7.8s-7.9.9-12.1-3.1-14.8-18.8-15.8-14.4c3.3,5.8,2.2,22.9-1.7,27.6,0,0-3.6,2.7-11.8,3.2s-10.1-.8-10.1-.8-5.4-6.3-6.8-13.3.2-12.5-1-11.9C403.5,180.9,396.4,197.1,396.4,197.1Z" transform="translate(-116.1 -48.6)"/>
      <path d="M435.1,181.3c.1,6.5-5.5,6.5-5.5,0S435.2,174.8,435.1,181.3Z" transform="translate(-116.1 -48.6)" style="fill: #fff"/>
    </g>
  </g>
</svg>
