<svg xmlns="http://www.w3.org/2000/svg" viewBox="0 0 860.3 961.4">
  <g class="tail">
    <g>
      <path d="M944.1,542.8Z" transform="translate(-159.1 -26.8)" style="fill: none"/>
      <path d="M999.3,623.9c-.6,1.6.1,1.6,0,0Z" transform="translate(-159.1 -26.8)" style="fill: none"/>
      <path d="M841.5,726.2c.1.2.1.3,0,0Z" transform="translate(-159.1 -26.8)" style="fill: none"/>
      <path d="M750.1,709.2A106.2,106.2,0,0,1,728.5,727a127.4,127.4,0,0,1,9.5,21.8c2.8,12.6,6.2,24.9,10,37.2a65.9,65.9,0,0,1,3,12.8,181.9,181.9,0,0,0,41.1-27.7l-.3-1.2C791,742.9,772.2,721.2,750.1,709.2Z" transform="translate(-159.1 -26.8)" style="fill: #a0a0a0"/>
      <path d="M819.2,684.9c-7.4-5.9-13.4-13.7-21.3-18.9-2.6-2.4-6.7-4.2-11.2-5.9-7.9,10.1-15.8,20.9-23.7,32.5,21.5,11.6,39.6,32,46.4,55.7l.6,4.3c4.1-4.8,7.9-9.9,11.6-15.2,5.7-8.6,11.4-16.5,16.9-23.8C835,702.4,828.8,692,819.2,684.9Z" transform="translate(-159.1 -26.8)" style="fill: #a0a0a0"/>
      <path d="M709.9,736.5c-25.5,10.4-57.2,14.1-94.9,11-57.5-4.8-106.9-24-108.2-24.6a36.8,36.8,0,0,0-27.3,68.4c2.4,1,59.1,23.4,127.5,29.4,11.2,1,22.1,1.4,32.7,1.4,33.7,0,64.1-4.9,90.9-14.6a41.6,41.6,0,0,0-2.6-15C722.4,773.6,718.9,754.1,709.9,736.5Z" transform="translate(-159.1 -26.8)" style="fill: #a0a0a0"/>
      <path d="M833.2,628.8a86.9,86.9,0,0,0-13.8-6.5c-6.4,6.6-12.8,13.7-19.2,21.2a72,72,0,0,1,13.7,8.4c15.2,13.6,30.6,25,39.5,42.7,7.2-8.7,14.2-16.5,21-23.3C862.8,655.4,849.2,640.2,833.2,628.8Z" transform="translate(-159.1 -26.8)" style="fill: #a0a0a0"/>
      <path d="M1014.8,594a36.5,36.5,0,0,0,3.7-25.9,37,37,0,0,0-41.1-28.3l2.6,2.4C993.6,557.4,1007.5,574.6,1014.8,594Z" transform="translate(-159.1 -26.8)" style="fill: #a0a0a0"/>
      <path d="M859.8,586.7a283.3,283.3,0,0,0-24.1,19.8c15.4,8.1,28.8,19.6,40.1,33,3.4,3.8,9.1,10.1,14.3,17.1a204,204,0,0,1,25.3-18.7,119.1,119.1,0,0,0-21.8-32.1C884.8,595.4,872.9,589.1,859.8,586.7Z" transform="translate(-159.1 -26.8)" style="fill: #a0a0a0"/>
      <path d="M940.6,593.5c-9.6-12.2-19.8-26.1-32.6-34.4a232.1,232.1,0,0,0-25.5,12.7A83.8,83.8,0,0,1,912,594.9c4.9,5.7,16.4,20,22.3,33.1a161.9,161.9,0,0,1,22.3-7.9c-.5-1.2-.9-2.3-1.3-3.5C951.8,608.4,946.2,600.4,940.6,593.5Z" transform="translate(-159.1 -26.8)" style="fill: #a0a0a0"/>
      <path d="M953.7,549a50.5,50.5,0,0,1-5.7-2.8c-5.3,1.3-10.8,2.7-16.5,4.4l2.5,2.5c15.3,16.9,31,34.8,40.6,55.7.9,2.1,1.8,4.2,2.6,6.3l2.8-.6,10.7-2.3a39.5,39.5,0,0,0,7.1-2.4C992.6,588.9,970,557.1,953.7,549Z" transform="translate(-159.1 -26.8)" style="fill: #a0a0a0"/>
      <path d="M763,692.6l-2.4,3.5a111.6,111.6,0,0,1-10.5,13.1c22.1,12,40.9,33.7,41.7,60.7l.3,1.2A164.8,164.8,0,0,0,810,752.6l-.6-4.3C802.6,724.6,784.5,704.2,763,692.6Z" transform="translate(-159.1 -26.8)" style="fill: silver"/>
      <path d="M841.5,726.2c.1.3.1.2,0,0Z" transform="translate(-159.1 -26.8)" style="fill: silver"/>
      <path d="M813.9,651.9a72,72,0,0,0-13.7-8.4c-4.5,5.3-9,10.8-13.5,16.6,4.5,1.7,8.6,3.5,11.2,5.9,7.9,5.2,13.9,13,21.3,18.9,9.6,7.1,15.8,17.5,19.3,28.7,5.1-6.8,10-13.1,14.9-19C844.5,676.9,829.1,665.5,813.9,651.9Z" transform="translate(-159.1 -26.8)" style="fill: silver"/>
      <path d="M835.7,606.5c-5.4,4.9-10.9,10.2-16.3,15.8a86.9,86.9,0,0,1,13.8,6.5c16,11.4,29.6,26.6,41.2,42.5,5.3-5.5,10.6-10.3,15.7-14.7-5.2-7-10.9-13.3-14.3-17.1C864.5,626.1,851.1,614.6,835.7,606.5Z" transform="translate(-159.1 -26.8)" style="fill: silver"/>
      <path d="M882.5,571.8c-2.5,1.4-5,3-7.6,4.6-5.1,3.2-10.1,6.6-15.1,10.3,13.1,2.4,25,8.7,33.8,19.1a119.1,119.1,0,0,1,21.8,32.1,157.1,157.1,0,0,1,18.9-9.9c-5.9-13.1-17.4-27.4-22.3-33.1A83.8,83.8,0,0,0,882.5,571.8Z" transform="translate(-159.1 -26.8)" style="fill: silver"/>
      <path d="M934,553.1l-2.5-2.5a243,243,0,0,0-23.5,8.5c12.8,8.3,23,22.2,32.6,34.4,5.6,6.9,11.2,14.9,14.7,23.1.4,1.2.8,2.3,1.3,3.5,7-2,13.9-3.5,20.6-5-.8-2.1-1.7-4.2-2.6-6.3C965,587.9,949.3,570,934,553.1Z" transform="translate(-159.1 -26.8)" style="fill: silver"/>
      <path d="M944.1,542.8Zm1,.6h0Z" transform="translate(-159.1 -26.8)" style="fill: silver"/>
      <path d="M999.3,623.9c.1,1.6-.6,1.6,0,0Z" transform="translate(-159.1 -26.8)" style="fill: silver"/>
      <path d="M1014.8,594c-7.3-19.4-21.2-36.6-34.8-51.8l-2.6-2.4-3,.6-9.8,2.1c-5.2,1.1-10.8,2.3-16.6,3.7a50.5,50.5,0,0,0,5.7,2.8c16.3,8.1,38.9,39.9,44.1,60.8A35.8,35.8,0,0,0,1014.8,594Z" transform="translate(-159.1 -26.8)" style="fill: silver"/>
      <path d="M738,748.8a127.4,127.4,0,0,0-9.5-21.8,116.1,116.1,0,0,1-18.6,9.5c9,17.6,12.5,37.1,18.1,56a41.6,41.6,0,0,1,2.6,15q10.5-3.9,20.4-8.7a65.9,65.9,0,0,0-3-12.8C744.2,773.7,740.8,761.4,738,748.8Z" transform="translate(-159.1 -26.8)" style="fill: silver"/>
    </g>
  </g>
  <g class="wave_arm">
    <g>
      <g>
        <path d="M866.2,125.1c-65.4,3,14.3,170.4-89.6,218.2-66,32-149.4-65.6-208.8-6.2,0,0-14.3-9.1-4.6,41.3s11.4,112.7,11.4,112.7,155.2-12.2,167-14.4l-9.1-24c125.9,32.8,164.7-167.7,154-223.3-7.7-.5-18.6,6.3-33.2-2S837.9,207,837.9,207c10.2,22.3,37.1,19.3,58.5,6.1C902.5,185.3,920,123.8,866.2,125.1Z" transform="translate(-159.1 -26.8)" style="fill: #ccc"/>
        <path d="M837.9,207s.9,12.1,15.4,20.4,25.5,1.5,33.2,2-5.7,91-38.4,164.3-174,48.4-173.1,47l-66.4-3.9,3.4,59.4,102.7-11.8c170.8-16.3,163.4-167.9,181.7-271.3C874.6,226.3,848.4,229.4,837.9,207Z" transform="translate(-159.1 -26.8)" style="fill: #a0a0a0"/>
      </g>
      <path d="M886.7,182.1c-.5,29.4-38.7,29.4-39.2,0S886.3,152.7,886.7,182.1Z" transform="translate(-159.1 -26.8)" style="fill: #c1272d"/>
      <path d="M851.7,158.4c.1,11.1-13.1,11.1-13,0S851.8,147.4,851.7,158.4Z" transform="translate(-159.1 -26.8)" style="fill: #c1272d"/>
      <path d="M862.7,139.8c.1,11-13.1,11-13,0S862.8,128.7,862.7,139.8Z" transform="translate(-159.1 -26.8)" style="fill: #c1272d"/>
      <path d="M880.1,136.7c.1,11-13.1,11-13,0S880.2,125.6,880.1,136.7Z" transform="translate(-159.1 -26.8)" style="fill: #c1272d"/>
      <path d="M896.4,145.2c.2,11-13,11-12.9,0S896.6,134.2,896.4,145.2Z" transform="translate(-159.1 -26.8)" style="fill: #c1272d"/>
      <path d="M902.9,167c.1,11-13.1,11-12.9,0S903,155.9,902.9,167Z" transform="translate(-159.1 -26.8)" style="fill: #c1272d"/>
    </g>
  </g>
  <g class="body">
    <path d="M687.8,398.3c-4.2-15.5-6-52.6-22.7-65.2C626.8,304.4,581,317,581,317l7,7.8c-49.4-7.6-124.5,4.3-130,2.4,0,0-124.7-15.6-152.3,9.3C191.6,407.1,184,740.3,224.2,851.9c27.2,67.2,39.4,52.9,46.6,71.5S295,980,330.5,984.3s73.7,6.8,83.7-8.7c16.2-20.5,46.1-18,52.1-18.6,63.2,3.1,27.4,43.7,130.2,27.3,35.5-4.3,52.5-42.2,59.7-60.9s19.4-4.3,46.6-71.5c28-77.7,32.9-263.4-5.5-392.6C698.3,457.9,690.7,409.1,687.8,398.3Z" transform="translate(-159.1 -26.8)" style="fill: #ccc"/>
    <ellipse cx="461.6" cy="611.9" rx="225.6" ry="340.6" transform="translate(-183.9 -7.3) rotate(-2.4)" style="fill: #dedede"/>
    <path d="M723.9,610.7c-1.8-78.3-27.8-164.9-27.8-164.9s14.8,124.7,1.2,214.9C676.9,795.1,606.7,901,463.5,901c-171.4,0-234.1-193.9-256.9-321.5-6.6,126.9-10.9,272.7,56.1,332.9,57.6-39.9,116.2,18.5,151.2,63.6,19.7-25.5,74.7-24.9,96.7-3.2,21.6-48.3,112.8-104.9,147-52.3C730.6,875.7,727.1,676.9,723.9,610.7Z" transform="translate(-159.1 -26.8)" style="fill: silver"/>
  </g>
  <g class="cone">
    <g>
      <g>
        <g>
          <polygon points="259 536.1 258.3 535.6 257.7 537.4 259 536.1" style="fill: none"/>
          <polygon points="235.3 602.9 235.9 602.4 235.6 602.2 235.3 602.9" style="fill: none"/>
          <polygon points="223.5 592.6 214.5 601.5 227 611.6 235.3 602.9 235.6 602.2 223.5 592.6" style="fill: #c69c6d"/>
          <polygon points="221.5 643.6 223.7 637 218.2 633.9 221.5 643.6" style="fill: #c69c6d"/>
          <polygon points="235.2 581.1 241.2 585.7 246.3 570.7 246 570.5 235.2 581.1" style="fill: #c69c6d"/>
          <polygon points="252.4 553 257.3 538.6 247.1 548.5 252.4 553" style="fill: #c69c6d"/>
          <polygon points="223.9 592.2 235.8 601.6 241 586.3 234.7 581.5 223.9 592.2" style="fill: #c69c6d"/>
          <polygon points="223 529 207.3 541.4 221 551.4 234.7 538.8 223 529" style="fill: #c69c6d"/>
          <polygon points="211.6 583.3 204 590.8 204.9 593.8 214 601.1 223 592.3 211.6 583.3" style="fill: #c69c6d"/>
          <polygon points="188.2 528.2 183.2 528.2 186.3 537.5 193.3 532 188.2 528.2" style="fill: #c69c6d"/>
          <polygon points="198.1 528.2 189.2 528.2 193.8 531.6 198.1 528.2" style="fill: #c69c6d"/>
          <polygon points="206.8 541.8 195.1 551 209.6 562 220.5 551.8 206.8 541.8" style="fill: #c69c6d"/>
          <polygon points="209.7 562.7 198.9 572.7 211.6 582.5 222.2 572.1 209.7 562.7" style="fill: #c69c6d"/>
          <polygon points="260.8 528.2 249.8 528.2 258.5 535 260.8 528.2" style="fill: #c69c6d"/>
          <polygon points="214.1 601.9 209.2 606.7 212.1 615.4 218.8 620.3 226.6 612.1 214.1 601.9" style="fill: #c69c6d"/>
          <polygon points="222.7 572.5 212 582.9 223.4 591.9 234.3 581.2 222.7 572.5" style="fill: #c69c6d"/>
          <polygon points="246.7 549 234.3 561.2 245.9 569.7 247.1 568.6 252.2 553.6 246.7 549" style="fill: #c69c6d"/>
          <polygon points="221 552.2 210.1 562.3 222.6 571.7 233.3 561.2 221 552.2" style="fill: #c69c6d"/>
          <polygon points="233.8 560.8 246.3 548.6 235.1 539.2 221.5 551.8 233.8 560.8" style="fill: #c69c6d"/>
          <polygon points="235.5 538.8 246.7 548.2 257.7 537.4 258.3 535.6 248.8 528.2 246.9 528.2 235.5 538.8" style="fill: #c69c6d"/>
          <polygon points="189.7 547.7 191.5 553.1 194.1 551 189.7 547.7" style="fill: #c69c6d"/>
          <polygon points="235.1 538.4 246.1 528.2 224 528.2 223.5 528.6 235.1 538.4" style="fill: #c69c6d"/>
          <polygon points="234.7 580.8 245.5 570.1 233.8 561.6 223.1 572.1 234.7 580.8" style="fill: #c69c6d"/>
          <polygon points="211.1 583 198.5 573.1 198.2 573.3 203.8 590.2 211.1 583" style="fill: #c69c6d"/>
          <polygon points="193.8 532.3 186.5 538 189.4 546.8 194.6 550.7 206.3 541.4 193.8 532.3" style="fill: #c69c6d"/>
          <polygon points="222.6 528.6 222.1 528.2 199 528.2 194.3 531.9 206.8 541.1 222.6 528.6" style="fill: #c69c6d"/>
          <polygon points="194.6 551.4 191.7 553.7 197.6 571.6 198.5 572.3 209.2 562.4 194.6 551.4" style="fill: #c69c6d"/>
          <polygon points="246.5 570.1 246.6 569.8 246.4 570 246.5 570.1" style="fill: #c69c6d"/>
          <polygon points="231.2 615 234.9 604.3 227.5 612 231.2 615" style="fill: #c69c6d"/>
          <polygon points="198 572.6 198 572.7 198 572.7 198 572.6" style="fill: #c69c6d"/>
          <polygon points="205.3 594.8 209 606 213.6 601.5 205.3 594.8" style="fill: #c69c6d"/>
          <polygon points="215.3 624.9 218 633.1 223.9 636.4 227.1 627.1 218.9 621.1 215.3 624.9" style="fill: #c69c6d"/>
          <polygon points="219.3 620.6 227.3 626.5 231 615.6 227.1 612.4 219.3 620.6" style="fill: #c69c6d"/>
          <polygon points="212.4 616.3 215 624.2 218.4 620.7 212.4 616.3" style="fill: #c69c6d"/>
          <polygon points="218.2 633.9 223.7 637 223.9 636.4 218 633.1 218.2 633.9" style="fill: #603813"/>
          <polygon points="218.9 621.1 227.1 627.1 227.3 626.5 219.3 620.6 218.9 621.1" style="fill: #603813"/>
          <polygon points="218.8 620.3 212.1 615.4 212.4 616.3 218.4 620.7 218.8 620.3" style="fill: #603813"/>
          <polygon points="214 601.1 204.9 593.8 205.3 594.8 213.6 601.5 214 601.1" style="fill: #603813"/>
          <polygon points="227.1 612.4 231 615.6 231.2 615 227.5 612 227.1 612.4" style="fill: #603813"/>
          <polygon points="214.1 601.9 226.6 612.1 227 611.6 214.5 601.5 214.1 601.9" style="fill: #603813"/>
          <polygon points="212 582.9 211.6 583.3 223 592.3 223.4 591.9 212 582.9" style="fill: #603813"/>
          <polygon points="223.5 592.6 235.6 602.2 235.8 601.6 223.9 592.2 223.5 592.6" style="fill: #603813"/>
          <polygon points="198.5 572.3 197.6 571.6 198 572.6 198 572.7 198.5 572.3" style="fill: #603813"/>
          <polygon points="211.6 582.5 198.9 572.7 198.5 573.1 211.1 583 211.6 582.5" style="fill: #603813"/>
          <polygon points="209.6 562 195.1 551 194.6 551.4 209.2 562.4 209.6 562" style="fill: #603813"/>
          <polygon points="194.6 550.7 189.4 546.8 189.7 547.7 194.1 551 194.6 550.7" style="fill: #603813"/>
          <polygon points="234.7 581.5 241 586.3 241.2 585.7 235.2 581.1 234.7 581.5" style="fill: #603813"/>
          <polygon points="234.7 580.8 223.1 572.1 222.7 572.5 234.3 581.2 234.7 580.8" style="fill: #603813"/>
          <polygon points="222.6 571.7 210.1 562.3 209.7 562.7 222.2 572.1 222.6 571.7" style="fill: #603813"/>
          <polygon points="233.8 560.8 221.5 551.8 221 552.2 233.3 561.2 233.8 560.8" style="fill: #603813"/>
          <polygon points="206.8 541.1 194.3 531.9 193.8 532.3 206.3 541.4 206.8 541.1" style="fill: #603813"/>
          <polygon points="193.8 531.6 189.2 528.2 188.2 528.2 193.3 532 193.8 531.6" style="fill: #603813"/>
          <polygon points="233.8 561.6 245.5 570.1 245.9 569.7 234.3 561.2 233.8 561.6" style="fill: #603813"/>
          <polygon points="246 570.5 246.3 570.7 246.5 570.1 246.4 570 246 570.5" style="fill: #603813"/>
          <polygon points="221 551.4 207.3 541.4 206.8 541.8 220.5 551.8 221 551.4" style="fill: #603813"/>
          <polygon points="246.3 548.6 246.7 548.2 235.5 538.8 235.1 539.2 246.3 548.6" style="fill: #603813"/>
          <polygon points="246.7 549 252.2 553.6 252.4 553 247.1 548.5 246.7 549" style="fill: #603813"/>
          <polygon points="235.1 538.4 223.5 528.6 223 529 234.7 538.8 235.1 538.4" style="fill: #603813"/>
          <polygon points="222.1 528.2 222.6 528.6 223 528.2 222.1 528.2" style="fill: #603813"/>
          <polygon points="258.3 535.6 258.5 535 249.8 528.2 248.8 528.2 258.3 535.6" style="fill: #603813"/>
          <polygon points="194.3 531.9 199 528.2 198.1 528.2 193.8 531.6 194.3 531.9" style="fill: #603813"/>
          <polygon points="193.8 532.3 193.3 532 186.3 537.5 186.5 538 193.8 532.3" style="fill: #603813"/>
          <polygon points="193.8 531.6 193.3 532 193.8 532.3 194.3 531.9 193.8 531.6" style="fill: #603813"/>
          <polygon points="224 528.2 223.1 528.2 223.5 528.6 224 528.2" style="fill: #603813"/>
          <polygon points="223 529 222.6 528.6 206.8 541.1 207.3 541.4 223 529" style="fill: #603813"/>
          <polygon points="194.6 551.4 194.1 551 191.5 553.1 191.7 553.7 194.6 551.4" style="fill: #603813"/>
          <polygon points="206.8 541.8 206.3 541.4 194.6 550.7 195.1 551 206.8 541.8" style="fill: #603813"/>
          <polygon points="194.6 550.7 194.1 551 194.6 551.4 195.1 551 194.6 550.7" style="fill: #603813"/>
          <polygon points="206.8 541.1 206.3 541.4 206.8 541.8 207.3 541.4 206.8 541.1" style="fill: #603813"/>
          <polygon points="223 528.2 223 528.2 223.1 528.2 223 528.2" style="fill: #603813"/>
          <polygon points="223.5 528.6 223.1 528.2 223 528.2 222.6 528.6 223 529 223.5 528.6" style="fill: #603813"/>
          <polygon points="198.5 573.1 198 572.7 198 572.7 198.2 573.3 198.5 573.1" style="fill: #603813"/>
          <polygon points="235.1 539.2 234.7 538.8 221 551.4 221.5 551.8 235.1 539.2" style="fill: #603813"/>
          <polygon points="221 552.2 220.5 551.8 209.6 562 210.1 562.3 221 552.2" style="fill: #603813"/>
          <polygon points="209.7 562.7 209.2 562.4 198.5 572.3 198.9 572.7 209.7 562.7" style="fill: #603813"/>
          <polygon points="235.5 538.8 246.9 528.2 246.1 528.2 235.1 538.4 235.5 538.8" style="fill: #603813"/>
          <polygon points="198.5 572.3 198 572.7 198.5 573.1 198.9 572.7 198.5 572.3" style="fill: #603813"/>
          <polygon points="209.6 562 209.2 562.4 209.7 562.7 210.1 562.3 209.6 562" style="fill: #603813"/>
          <polygon points="221 551.4 220.5 551.8 221 552.2 221.5 551.8 221 551.4" style="fill: #603813"/>
          <polygon points="234.7 538.8 235.1 539.2 235.5 538.8 235.1 538.4 234.7 538.8" style="fill: #603813"/>
          <polygon points="203.8 590.2 204 590.8 211.6 583.3 211.1 583 203.8 590.2" style="fill: #603813"/>
          <polygon points="234.3 561.2 246.7 549 246.3 548.6 233.8 560.8 234.3 561.2" style="fill: #603813"/>
          <polygon points="233.8 561.6 233.3 561.2 222.6 571.7 223.1 572.1 233.8 561.6" style="fill: #603813"/>
          <polygon points="257.3 538.6 257.7 537.4 246.7 548.2 247.1 548.5 257.3 538.6" style="fill: #603813"/>
          <polygon points="222.7 572.5 222.2 572.1 211.6 582.5 212 582.9 222.7 572.5" style="fill: #603813"/>
          <polygon points="211.6 582.5 211.1 583 211.6 583.3 212 582.9 211.6 582.5" style="fill: #603813"/>
          <polygon points="222.6 571.7 222.2 572.1 222.7 572.5 223.1 572.1 222.6 571.7" style="fill: #603813"/>
          <polygon points="233.3 561.2 233.8 561.6 234.3 561.2 233.8 560.8 233.3 561.2" style="fill: #603813"/>
          <polygon points="246.7 549 247.1 548.5 246.7 548.2 246.3 548.6 246.7 549" style="fill: #603813"/>
          <polygon points="245.9 569.7 246.4 570 246.6 569.8 247.1 568.6 245.9 569.7" style="fill: #603813"/>
          <polygon points="214.1 601.9 213.6 601.5 209 606 209.2 606.7 214.1 601.9" style="fill: #603813"/>
          <polygon points="223.4 591.9 223.9 592.2 234.7 581.5 234.3 581.2 223.4 591.9" style="fill: #603813"/>
          <polygon points="223.5 592.6 223 592.3 214 601.1 214.5 601.5 223.5 592.6" style="fill: #603813"/>
          <polygon points="234.7 580.8 235.2 581.1 246 570.5 245.5 570.1 234.7 580.8" style="fill: #603813"/>
          <polygon points="214 601.1 213.6 601.5 214.1 601.9 214.5 601.5 214 601.1" style="fill: #603813"/>
          <polygon points="223.4 591.9 223 592.3 223.5 592.6 223.9 592.2 223.4 591.9" style="fill: #603813"/>
          <polygon points="234.3 581.2 234.7 581.5 235.2 581.1 234.7 580.8 234.3 581.2" style="fill: #603813"/>
          <polygon points="246 570.5 246.4 570 245.9 569.7 245.5 570.1 246 570.5" style="fill: #603813"/>
          <polygon points="218.8 620.3 219.3 620.6 227.1 612.4 226.6 612.1 218.8 620.3" style="fill: #603813"/>
          <polygon points="227 611.6 227.5 612 234.9 604.3 235.3 602.9 227 611.6" style="fill: #603813"/>
          <polygon points="218.9 621.1 218.4 620.7 215 624.2 215.3 624.9 218.9 621.1" style="fill: #603813"/>
          <polygon points="218.4 620.7 218.9 621.1 219.3 620.6 218.8 620.3 218.4 620.7" style="fill: #603813"/>
          <polygon points="227.1 612.4 227.5 612 227 611.6 226.6 612.1 227.1 612.4" style="fill: #603813"/>
        </g>
        <g style="opacity: 0.48">
          <path d="M418.1,561.8l2.3-6.8H342.9l3,9.1a97.2,97.2,0,0,1,12.8,5.6c22.5,12.4,29,37.6,31.6,59.6.4,3.8.7,7.7.9,11.6l3.3-9.8.5-1.4.5-.5-.3-.2.2-.6,5.3-15.3.2-.6,5.1-15,.2-.6v-.3l.4-1.2,5.1-15,.2-.6,4.9-14.3.4-1.3,1.3-1.2-.7-.6Z" transform="translate(-159.1 -26.8)" style="fill: #8c6239"/>
        </g>
      </g>
      <g>
        <path d="M433.7,538.6a41.2,41.2,0,0,0,2-12.7c0-25.5-23.6-46.1-52.8-46.1s-52.8,20.6-52.8,46.1v1.4a4.2,4.2,0,0,0-1.1,3.2,57.7,57.7,0,0,0,8,26.4l-1.1,1.5c-2.8,4.3-1.9,9.8-1.7,14.6s9.1,6.8,11.1,1.3a17.9,17.9,0,0,1,2-3.9l.8.6a5.8,5.8,0,0,0,9.2-2.1c.1.1.3.2.4.4s2.1,2.2,2.2,4.3a10.3,10.3,0,0,0,3,7.5c2.6,2.6,6.9,1.5,8.9-1a10.9,10.9,0,0,0,1.4-2.3,9.6,9.6,0,0,0,7.8.5,5.6,5.6,0,0,0,2-1.2,42.2,42.2,0,0,1-.7,11.2c-.9,4.9,5,8.4,9.5,4.9s5.4-8.6,5.8-13.5c.1-1.3,0-4.5.8-6.6a6.8,6.8,0,0,0,5.9-.7c-1.6,5.3,6.7,9.3,10.2,4a9.5,9.5,0,0,0,1-1.7l5,1.9a5.8,5.8,0,0,0,6-1.8,4.8,4.8,0,0,0,.4-5.6,16.3,16.3,0,0,0-1.1-1.7c3.2-4.7,6.5-9.4,8.9-14.4S438.9,541.1,433.7,538.6Z" transform="translate(-159.1 -26.8)" style="fill: #f0f"/>
        <path d="M433.7,538.6a41.3,41.3,0,0,0-3.8-33.8c-5.2,17.1-21,32.3-38.1,40.4-11.4,5.4-23.9,8.2-36.5,10.6-6.3,1.2-12.9,2.5-19.4,2.5h0c-2.8,4.3-1.9,9.8-1.7,14.6s9.1,6.8,11.1,1.3a17.9,17.9,0,0,1,2-3.9l.8.6a5.8,5.8,0,0,0,9.2-2.1c.1.1.3.2.4.4s2.1,2.2,2.2,4.3a10.3,10.3,0,0,0,3,7.5c2.6,2.6,6.9,1.5,8.9-1a10.9,10.9,0,0,0,1.4-2.3,9.6,9.6,0,0,0,7.8.5,5.6,5.6,0,0,0,2-1.2,42.2,42.2,0,0,1-.7,11.2c-.9,4.9,5,8.4,9.5,4.9s5.4-8.6,5.8-13.5c.1-1.3,0-4.5.8-6.6a6.8,6.8,0,0,0,5.9-.7c-1.6,5.3,6.7,9.3,10.2,4a9.5,9.5,0,0,0,1-1.7l5,1.9a5.8,5.8,0,0,0,6-1.8,4.8,4.8,0,0,0,.4-5.6,16.3,16.3,0,0,0-1.1-1.7c3.2-4.7,6.5-9.4,8.9-14.4S438.9,541.1,433.7,538.6Z" transform="translate(-159.1 -26.8)" style="fill: #9f1ca3"/>
      </g>
      <g>
        <path d="M435.3,482.5c0-25.5-23.6-46.1-52.8-46.1s-52.8,20.6-52.8,46.1a40.8,40.8,0,0,0,3.2,16,2.8,2.8,0,0,1,.1.9,27.5,27.5,0,0,1-5.3,17.3c-2.4,3.4,1.7,9,6.4,7.4a26.8,26.8,0,0,0,11.7-8.4l.6.5a36.2,36.2,0,0,1,1.5,9.3c.1,3.4-.3,6.9.7,10.3a17.5,17.5,0,0,0,5.9,8.4c3.2,2.6,8.1,1.6,9.4-2.2a33.5,33.5,0,0,0,1.9-14c0-.4-.1-.8-.1-1.2a17.8,17.8,0,0,1,4.4,3.2c1.8,2,2.3,4.9,3.3,7.3a13.2,13.2,0,0,0,8.3,7.5c4.3,1.5,7.7-2.8,6.9-6.2a29.3,29.3,0,0,1-.5-2.9c1.9,0,4.3-.8,5.1-2.4s1.8-2.5,3.9-3l1-.3a38.3,38.3,0,0,1,.8,6.8c.2,5.6,9.4,6.9,11.1,1.3l5.5-18.1v-.3a78.8,78.8,0,0,0,6,13.3c2.1,3.8,9.2,2.8,10.3-1.2a50.5,50.5,0,0,0,1.4-19.7c-.4-3.2-1.5-6.5-.6-9.7s1.8-5.7,2.2-8.8a27.4,27.4,0,0,0,.2-6.4A37,37,0,0,0,435.3,482.5Z" transform="translate(-159.1 -26.8)" style="fill: #fcee21"/>
        <path d="M402.7,492.2c-12,6.4-25.7,9.7-39.2,12-10.6,1.9-21.3,3.5-31.9,5.1a31,31,0,0,1-3.9,7.4c-2.4,3.4,1.7,9,6.4,7.4a26.8,26.8,0,0,0,11.7-8.4l.6.5a36.2,36.2,0,0,1,1.5,9.3c.1,3.4-.3,6.9.7,10.3a17.5,17.5,0,0,0,5.9,8.4c3.2,2.6,8.1,1.6,9.4-2.2a33.5,33.5,0,0,0,1.9-14c0-.4-.1-.8-.1-1.2a17.8,17.8,0,0,1,4.4,3.2c1.8,2,2.3,4.9,3.3,7.3a13.2,13.2,0,0,0,8.3,7.5c4.3,1.5,7.7-2.8,6.9-6.2a29.3,29.3,0,0,1-.5-2.9c1.9,0,4.3-.8,5.1-2.4s1.8-2.5,3.9-3l1-.3a38.3,38.3,0,0,1,.8,6.8c.2,5.6,9.4,6.9,11.1,1.3l5.5-18.1v-.3a78.8,78.8,0,0,0,6,13.3c2.1,3.8,9.2,2.8,10.3-1.2a50.5,50.5,0,0,0,1.4-19.7c-.4-3.2-1.5-6.5-.6-9.7s1.8-5.7,2.2-8.8a27.4,27.4,0,0,0,.2-6.4,37,37,0,0,0,.2-4.7c0-13.6-6.7-25.9-17.5-34.3a40,40,0,0,1,4.4,14.9C423.3,476,414.5,485.9,402.7,492.2Z" transform="translate(-159.1 -26.8)" style="fill: #dbcb35"/>
      </g>
      <ellipse cx="213" cy="421.8" rx="13.3" ry="8.9" style="fill: #fff"/>
      <ellipse cx="193.4" cy="432.4" rx="6.4" ry="4.3" style="fill: #fff"/>
      <ellipse cx="180.7" cy="506.6" rx="2" ry="2" style="fill: #fff"/>
    </g>
  </g>
  <g class="rest_arm">
    <g>
      <g>
        <path d="M349.3,311.6s-116.1-9.8-156.8,66-43.8,154.8-11.7,204.6,97.5,91.4,167.2,97,99.3-4,89.5-42.8-34-36.2-51.9-26.2-72.8-17.5-109.8-51-45.6-55.4-45.6-55.4-2.5-29.8,8.6-55.9S349.3,311.6,349.3,311.6Z" transform="translate(-159.1 -26.8)" style="fill: #ccc"/>
        <path d="M186.8,505.4c48.9-13.9,32.1-72.8,71.6-95.7-25,29.8-29.9,62.3-30.1,99.2C219.5,493.1,196.7,499.8,186.8,505.4Z" transform="translate(-159.1 -26.8)" style="fill: silver"/>
        <path d="M436.6,626c-31.7-72.4-40.8,65.4-205.5-116.3-.7-33.1,8-76.2,27.3-98.5-14.6,7.5-38,68.5-33.4,93.3-15.1-15.3-43.7,1-43.2,2.4,62.8-29.7,89.7,98.7,188.5,108.8,17.3,3.8,33.1-12.9,44.7-7.7,97.2,122.5-213.3,70.4-247.9-55.6C181,653.6,462.3,749.3,436.6,626Z" transform="translate(-159.1 -26.8)" style="fill: #a0a0a0"/>
      </g>
      <path d="M432.8,275.4h0Zm0,0Z" transform="translate(-159.1 -26.8)"/>
    </g>
  </g>
  <g class="head">
    <path d="M459.9,382.5Z" transform="translate(-159.1 -26.8)" style="fill: #b6b6b6"/>
    <path d="M318.7,299.3l-.8,30.2c39.6,94.5,232.5,95.7,270-3.6l-1.7-27.8C538.3,396.6,372.9,390.5,318.7,299.3Z" transform="translate(-159.1 -26.8)" style="fill: #c1272d"/>
    <g>
      <path d="M305,173.5s-10.2-46.1,2.5-97,12-54.1,30.1-42.3S400.2,91,400.2,91C361.7,83.5,313.7,140.1,305,173.5Z" transform="translate(-159.1 -26.8)" style="fill: #b6b6b6"/>
      <path d="M306.7,152.4c.2,3.8.3-131,27.2-109.6C347.5,51.5,383,83.9,383,83.9,358.1,88.5,314.1,129.6,306.7,152.4Z" transform="translate(-159.1 -26.8)" style="fill: #841618"/>
      <path d="M409.1,90.4s-20.6,11.1-25.2,13.3,4.2-10.3,1.9-17.4c-3.2-9.7-22.6-30.7-34.8-41.8S409.1,90.4,409.1,90.4Z" transform="translate(-159.1 -26.8)" style="fill: #ccc"/>
      <path d="M602.1,171.8s10.2-46-2.6-97-11.9-54.1-30.1-42.3-62.5,56.9-62.5,56.9C545.3,81.8,593.4,138.4,602.1,171.8Z" transform="translate(-159.1 -26.8)" style="fill: #b6b6b6"/>
      <path d="M600.3,150.8c-.1,3.7-.2-131-27.2-109.6C559.6,49.8,524,82.3,524,82.3,548.9,86.8,592.9,127.9,600.3,150.8Z" transform="translate(-159.1 -26.8)" style="fill: #841618"/>
      <path d="M497.9,88.7s20.6,11.2,25.3,13.4-4.3-10.4-1.9-17.4c3.2-9.8,22.5-30.8,34.7-41.8S497.9,88.7,497.9,88.7Z" transform="translate(-159.1 -26.8)" style="fill: #ccc"/>
    </g>
    <path d="M611.2,171a46.8,46.8,0,0,1-12.1,10.1c-17.8,9.4-33.9,0-33.9,0a46.1,46.1,0,0,0,30.5-7.7c4.6-3,7.3-8.9,8.9-15.7-18.3-33.5-47.9-59.7-90.1-72.3-2.6,1-5.4,2.2-8.4,3.7-11.9,5.9-29.7,30.6-29.7,30.6s3.3-20,11.9-34.9c1-1.7,1.9-3.3,2.8-4.7a214.9,214.9,0,0,0-26.3-2.6c7.9.6,15.7,1.6,15.7,1.6s-7.4,4-9.4,9.8c-10.8,30.7-13.9,71.7-13.9,71.7s-5.8-43.3-19.6-71.3c-1.8-3.6-8.9-10.5-8.9-10.5s6.9-.8,14.6-1.4a217.1,217.1,0,0,0-22,1.9l3.3,5.5c8.6,14.9,11.9,34.9,11.9,34.9S418.7,95,406.8,89.1a69.2,69.2,0,0,0-11.1-4.6c-44,12.2-74.7,39-93.5,73.4,1.6,7.1,4.4,13.2,9,16.4a45.9,45.9,0,0,0,30.6,7.6s-16.1,9.4-33.9,0a45.4,45.4,0,0,1-12.4-10.3A201.2,201.2,0,0,0,281,227.3c-5.8,50.1,20,134.4,165.4,143.4v.6l7.1-.3,7.1.3v-.6c145.4-9,171.2-93.3,165.4-143.4A198.8,198.8,0,0,0,611.2,171Z" transform="translate(-159.1 -26.8)" style="fill: #ccc"/>
    <path d="M430.6,410.1h0Z" transform="translate(-159.1 -26.8)"/>
    <path d="M410.6,468.8h0Z" transform="translate(-159.1 -26.8)"/>
    <g>
      <path d="M496.6,417.6c-.8,50.6-76.2,50.6-77.1,0C420.4,366.9,495.8,366.9,496.6,417.6Z" transform="translate(-159.1 -26.8)"/>
      <path d="M494.7,417.6c-.8,48.1-72.4,48.1-73.2,0C422.3,369.4,493.9,369.4,494.7,417.6Z" transform="translate(-159.1 -26.8)" style="fill: #fbcc34"/>
      <path d="M482.8,426.4l-11.1-5.2c1.2-3.3,2.5-5.9,2.2-8.3l11.6,3.6-9-8.2-2.6-13.9c-6.3-.3-5.7.4-11.1-3.1l-8.3,9.1-12.8,2.5,10.6,3.3c-.6,1.6-1.2,3.5-1.7,5-6.1-2.9-10.9-5.2-11.7-5.7.8,1.1,3.4,11.5,3.4,11.5s-6.8,11.4-14,22.5c10.9,17.3,40.2,20.1,54.6,5.6l-3-14.7Zm-21.4-16,1.3.4-.7,2.3-1.4-.4Zm5.3,10.3-.9-.3-.4,1.2-4.7-1.6.4-1.1-.9-.3.3-1.1,1.1.3-.3,1.1,4.3,1.4.3-1.1,1.2.4Zm-1-4-.4.9-2.3-.8.3-.9,1.1.4,1.5-4.5,1.2.4Zm4-1.1-1.4-.4.7-2.3,1.4.4Z" transform="translate(-159.1 -26.8)"/>
      <path d="M464.4,416.3l-1.1-.4-.3.9,2.3.8,1.8-5.4-1.2-.4Z" transform="translate(-159.1 -26.8)" style="fill: #fff"/>
      <rect x="460.4" y="411" width="2.4" height="1.45" transform="translate(-232 696.1) rotate(-71.9)" style="fill: #fff"/>
      <rect x="468.1" y="413.5" width="2.4" height="1.45" transform="translate(-229.1 705.1) rotate(-71.9)" style="fill: #fff"/>
      <polygon points="306.5 393.5 302.2 392.1 302.5 391 301.4 390.6 301.1 391.7 302 392 301.6 393.2 306.3 394.7 306.7 393.6 307.6 393.9 308 392.8 306.9 392.4 306.5 393.5" style="fill: #fff"/>
    </g>
    <g>
      <path d="M437.7,89.3c13.8,28,19.6,71.3,19.6,71.3s3.2-41,13.9-71.7c2.1-5.8,9.4-9.8,9.4-9.8s-7.8-1-15.6-1.6c-3.7-.2-7.5-.2-11.4-.2H443.5c-7.7.6-14.6,1.4-14.6,1.4S436,85.7,437.7,89.3Z" transform="translate(-159.1 -26.8)" style="fill: #aaa"/>
      <path d="M436.6,119.7s-3.3-20-11.8-34.9c-1.2-2-2.3-3.9-3.4-5.5a181.1,181.1,0,0,0-25.6,5.2,69.2,69.2,0,0,1,11.1,4.6C418.8,95,436.6,119.7,436.6,119.7Z" transform="translate(-159.1 -26.8)" style="fill: #aaa"/>
      <path d="M476.6,119.7S494.4,95,506.3,89.1a74.5,74.5,0,0,1,8.4-3.7,182.1,182.1,0,0,0-23.4-5.3l-2.9,4.7C479.8,99.7,476.6,119.7,476.6,119.7Z" transform="translate(-159.1 -26.8)" style="fill: #aaa"/>
      <path d="M308,181.9c17.8,9.4,34,0,34,0a45.9,45.9,0,0,1-30.6-7.6c-4.7-3.2-7.4-9.3-9-16.4a144.5,144.5,0,0,0-6.7,13.7C299.5,175.9,303.6,179.6,308,181.9Z" transform="translate(-159.1 -26.8)" style="fill: silver"/>
      <path d="M595.9,173.4a46.4,46.4,0,0,1-30.6,7.7s16.1,9.4,34,0a46.4,46.4,0,0,0,12-10.1c-2-4.5-4.2-9-6.5-13.3C603.2,164.5,600.4,170.4,595.9,173.4Z" transform="translate(-159.1 -26.8)" style="fill: silver"/>
      <path d="M459.6,347.8c-98.8,2.8-154.3-62.1-179.1-114.7-1.9,50.6,28.7,126.3,166,134.7v.6l7.1-.2,7.2.2v-.6c136.3-8.4,167.4-83,166-133.6C604.6,284.6,562,344.9,459.6,347.8Z" transform="translate(-159.1 -26.8)" style="fill: silver"/>
      <path d="M624,225.2s-34.6,16.1-62.8,35c-17,11.4-24.3,36.6-40.9,24.2-44.2-32.8-44.3-52.3-65.4-51.7s-22.1,18.9-66.3,51.7c-20.4,15.3-32.6-12.8-52.7-29.6-23.4-19.6-53.3-29.6-53.3-29.6s-4.5,49.5,31.9,83.4c54.6,50.8,130.6,45.8,140,45,9.3.8,85.3,5.8,140-45C630.8,274.7,624,225.2,624,225.2Z" transform="translate(-159.1 -26.8)" style="fill: #dedede"/>
    </g>
    <path d="M468.9,277.8c-9.7.2-12.3-8.2-12.6-9.2v-18c0-.7-.8-.8-1.2-.5s-.6-.3-1,.5v18c-.3,1-2.9,9.4-12.6,9.2s-10.6-6.1-14-8.9c1.9,4.6,2.9,9.4,14,10.3,9,.3,12.7-6.9,13.7-9.4a14.1,14.1,0,0,0,13.4,9.4c11.1-.7,12.4-5.6,14.3-10.3C479.5,271.7,479.3,277.2,468.9,277.8Z" transform="translate(-159.1 -26.8)"/>
    <g>
      <path d="M454.9,252.2c8.7-4.4,11.4-9.1,10.7-12s-5.1-4.9-9.7-4.9h-2c-4.6,0-8.9,1.9-9.7,4.9s2,7.6,10.7,12Z" transform="translate(-159.1 -26.8)" style="fill: #ba7c97"/>
      <path d="M455.6,238.1c8.7-4.4,10.7,5,10,2.1s-5.1-4.9-9.7-4.9h-2c-4.6,0-8.9,1.9-9.7,4.9s1.8-6.6,10.4-2.2Z" transform="translate(-159.1 -26.8)" style="fill: #f8a5c9"/>
    </g>
    <g>
      <path d="M396.2,246.5c-.5,32.2-44.2,32.2-44.7,0S395.7,214.3,396.2,246.5Z" transform="translate(-159.1 -26.8)" style="fill: #d2b3b3;opacity: 0.5"/>
      <path d="M384.7,240.2c-.4,0-37.2-18.4-37.5-18.5a1,1,0,0,1-.4-1.2.7.7,0,0,1,1-.4l37.3,18.4A.9.9,0,0,1,384.7,240.2Z" transform="translate(-159.1 -26.8)"/>
      <path d="M385.9,246.5l-41.3-1a1,1,0,0,1-.8-.9.9.9,0,0,1,.8-.9l41.4,1.1C387,244.8,387,246.5,385.9,246.5Z" transform="translate(-159.1 -26.8)"/>
      <path d="M348.5,272.9a.9.9,0,0,1-.4-1.7l35.3-20a.8.8,0,0,1,1.1.4.9.9,0,0,1-.3,1.1C383.7,252.9,349,272.9,348.5,272.9Z" transform="translate(-159.1 -26.8)"/>
    </g>
    <g>
      <path d="M507.2,246.5c.5,32.2,44.2,32.2,44.7,0S507.7,214.3,507.2,246.5Z" transform="translate(-159.1 -26.8)" style="fill: #d2b3b3;opacity: 0.5"/>
      <path d="M518.6,240.2c.4,0,37.2-18.4,37.6-18.5a1,1,0,0,0,.4-1.2.8.8,0,0,0-1.1-.4l-37.2,18.4A.9.9,0,0,0,518.6,240.2Z" transform="translate(-159.1 -26.8)"/>
      <path d="M517.4,246.5l41.4-1a1,1,0,0,0,.8-.9c-.1-.5-.4-.9-.9-.9l-41.3,1.1C516.4,244.8,516.4,246.5,517.4,246.5Z" transform="translate(-159.1 -26.8)"/>
      <path d="M554.9,272.9a.9.9,0,0,0,.4-1.7l-35.4-20a.7.7,0,0,0-1,.4.8.8,0,0,0,.3,1.1C519.7,252.9,554.4,272.9,554.9,272.9Z" transform="translate(-159.1 -26.8)"/>
    </g>
    <path d="M430.2,286.8a144.5,144.5,0,0,0,38.4,2,63.2,63.2,0,0,0,12.4-2.3,9.6,9.6,0,0,1-4.3,3.1c-12.3,5.7-37.2,4.4-46.5-2.8Z" transform="translate(-159.1 -26.8)" style="fill: silver"/>
  </g>
  <g class="closed_eyes">
    <g>
      <path d="M482.1,199.8c24.4,7.8,49.7,2.1,71.9-9.1-16.1,21-51.6,27.6-71.9,9.1Z" transform="translate(-159.1 -26.8)"/>
      <path d="M428.9,199.8c-24.4,7.8-49.6,2.1-71.9-9.1,16.2,21,51.6,27.6,71.9,9.1Z" transform="translate(-159.1 -26.8)"/>
    </g>
  </g>
  <g class="open_eyes">
    <g>
      <path d="M430.2,196.2c-23.8,7.7-47.7,4-69.5-6.8-.4-.2-.9.5-1.3.3,16.1,20.9,52.6,27.3,72.8,8.8Z" transform="translate(-159.1 -26.8)"/>
      <path d="M434.3,189.1a61.5,61.5,0,0,0-20-24,32.1,32.1,0,0,0-10.7-6.4c-12.3-4.3-31.1,1.6-44.9,17.7-5.9,27.3,46.3,40.8,71.8,21.5l-.6-3c5.7,16.5,3.6,48.4,3.6,48.4l6.2-6S445.4,213.4,434.3,189.1Z" transform="translate(-159.1 -26.8)" style="fill: #aaa"/>
      <path d="M430.2,196.8c-20.9,16.2-54.8,10.6-64.8-11.4C383.3,148.4,423.1,164,430.2,196.8Z" transform="translate(-159.1 -26.8)" style="fill: #fcee21"/>
      <path d="M429.6,196.8c-21,16.2-54.9,10.6-64.8-11.4l5.9-9.3c8.9,30.5,37,36.2,54.1,8.4Z" transform="translate(-159.1 -26.8)" style="fill: #f7931e"/>
      <path d="M430.4,197.3c-4.3-34.4-44.9-53.3-65.7-15.2-4.6,8.2-14.7,8.9-14.7,8.9s9.1,1,13.8-3.5S380.9,165.9,382,171c-3.7,6.6-2.5,26.3,2,31.7-.1,0,4.1,3,13.6,3.7s11.6-1,11.6-1,6.2-7.3,7.8-15.3-.3-14.4,1.1-13.6C422.2,178.8,430.4,197.3,430.4,197.3Z" transform="translate(-159.1 -26.8)"/>
      <path d="M385.9,179.2c-.1,7.4,6.4,7.4,6.3,0S385.8,171.7,385.9,179.2Z" transform="translate(-159.1 -26.8)" style="fill: #fff"/>
    </g>
    <g>
      <path d="M481.2,196.2c23.8,7.7,47.7,4,69.5-6.8.4-.2.9.5,1.3.3-16.1,20.9-52.6,27.3-72.8,8.8Z" transform="translate(-159.1 -26.8)"/>
      <path d="M477.1,189.1a62.3,62.3,0,0,1,20-24,32.1,32.1,0,0,1,10.7-6.4c12.3-4.3,31.1,1.6,44.9,17.7,5.9,27.3-46.3,40.8-71.8,21.5l.6-3c-5.7,16.5-3.5,48.4-3.5,48.4l-6.3-6S466,213.4,477.1,189.1Z" transform="translate(-159.1 -26.8)" style="fill: #aaa"/>
      <path d="M481.2,196.8C502.1,213,536,207.4,546,185.4,528.1,148.4,488.3,164,481.2,196.8Z" transform="translate(-159.1 -26.8)" style="fill: #fcee21"/>
      <path d="M481.8,196.8c21,16.2,54.9,10.6,64.8-11.4l-5.9-9.3c-8.9,30.5-37,36.2-54.1,8.4Z" transform="translate(-159.1 -26.8)" style="fill: #f7931e"/>
      <path d="M481,197.3c4.3-34.4,44.9-53.3,65.7-15.2,4.6,8.2,14.7,8.9,14.7,8.9s-9.1,1-13.8-3.5-17.1-21.6-18.2-16.5c3.7,6.6,2.5,26.3-1.9,31.7,0,0-4.2,3-13.7,3.7s-11.6-1-11.6-1-6.2-7.3-7.8-15.3.3-14.4-1.1-13.6C489.2,178.8,481,197.3,481,197.3Z" transform="translate(-159.1 -26.8)"/>
      <path d="M525.5,179.2c.1,7.4-6.4,7.4-6.3,0S525.6,171.7,525.5,179.2Z" transform="translate(-159.1 -26.8)" style="fill: #fff"/>
    </g>
  </g>
</svg>
