<svg xmlns="http://www.w3.org/2000/svg" viewBox="0 0 860.3 961.4">
    <g class="tail">
        <path d="M944.1 542.8ZM999.3 623.9c-.6 1.6.1 1.6 0 0ZM841.5 726.2c.1.2.1.3 0 0Z" transform="translate(-159.1 -26.8)" style="fill:none"/>
        <path d="M750.1 709.2a106.2 106.2 0 0 1-21.6 17.8 127.4 127.4 0 0 1 9.5 21.8c2.8 12.6 6.2 24.9 10 37.2a65.9 65.9 0 0 1 3 12.8 181.9 181.9 0 0 0 41.1-27.7l-.3-1.2c-.8-27-19.6-48.7-41.7-60.7ZM819.2 684.9c-7.4-5.9-13.4-13.7-21.3-18.9-2.6-2.4-6.7-4.2-11.2-5.9-7.9 10.1-15.8 20.9-23.7 32.5 21.5 11.6 39.6 32 46.4 55.7l.6 4.3c4.1-4.8 7.9-9.9 11.6-15.2 5.7-8.6 11.4-16.5 16.9-23.8-3.5-11.2-9.7-21.6-19.3-28.7ZM709.9 736.5c-25.5 10.4-57.2 14.1-94.9 11-57.5-4.8-106.9-24-108.2-24.6a36.8 36.8 0 0 0-27.3 68.4c2.4 1 59.1 23.4 127.5 29.4 11.2 1 22.1 1.4 32.7 1.4 33.7 0 64.1-4.9 90.9-14.6a41.6 41.6 0 0 0-2.6-15c-5.6-18.9-9.1-38.4-18.1-56ZM833.2 628.8a86.9 86.9 0 0 0-13.8-6.5c-6.4 6.6-12.8 13.7-19.2 21.2a72 72 0 0 1 13.7 8.4c15.2 13.6 30.6 25 39.5 42.7 7.2-8.7 14.2-16.5 21-23.3-11.6-15.9-25.2-31.1-41.2-42.5ZM1014.8 594a36.5 36.5 0 0 0 3.7-25.9 37 37 0 0 0-41.1-28.3l2.6 2.4c13.6 15.2 27.5 32.4 34.8 51.8ZM859.8 586.7a283.3 283.3 0 0 0-24.1 19.8c15.4 8.1 28.8 19.6 40.1 33 3.4 3.8 9.1 10.1 14.3 17.1a204 204 0 0 1 25.3-18.7 119.1 119.1 0 0 0-21.8-32.1c-8.8-10.4-20.7-16.7-33.8-19.1ZM940.6 593.5c-9.6-12.2-19.8-26.1-32.6-34.4a232.1 232.1 0 0 0-25.5 12.7 83.8 83.8 0 0 1 29.5 23.1c4.9 5.7 16.4 20 22.3 33.1a161.9 161.9 0 0 1 22.3-7.9c-.5-1.2-.9-2.3-1.3-3.5-3.5-8.2-9.1-16.2-14.7-23.1ZM953.7 549a50.5 50.5 0 0 1-5.7-2.8c-5.3 1.3-10.8 2.7-16.5 4.4l2.5 2.5c15.3 16.9 31 34.8 40.6 55.7.9 2.1 1.8 4.2 2.6 6.3l2.8-.6 10.7-2.3a39.5 39.5 0 0 0 7.1-2.4c-5.2-20.9-27.8-52.7-44.1-60.8Z" transform="translate(-159.1 -26.8)" style="fill:#a0a0a0"/>
        <path d="m763 692.6-2.4 3.5a111.6 111.6 0 0 1-10.5 13.1c22.1 12 40.9 33.7 41.7 60.7l.3 1.2a164.8 164.8 0 0 0 17.9-18.5l-.6-4.3c-6.8-23.7-24.9-44.1-46.4-55.7ZM841.5 726.2c.1.3.1.2 0 0ZM813.9 651.9a72 72 0 0 0-13.7-8.4c-4.5 5.3-9 10.8-13.5 16.6 4.5 1.7 8.6 3.5 11.2 5.9 7.9 5.2 13.9 13 21.3 18.9 9.6 7.1 15.8 17.5 19.3 28.7 5.1-6.8 10-13.1 14.9-19-8.9-17.7-24.3-29.1-39.5-42.7ZM835.7 606.5c-5.4 4.9-10.9 10.2-16.3 15.8a86.9 86.9 0 0 1 13.8 6.5c16 11.4 29.6 26.6 41.2 42.5 5.3-5.5 10.6-10.3 15.7-14.7-5.2-7-10.9-13.3-14.3-17.1-11.3-13.4-24.7-24.9-40.1-33ZM882.5 571.8c-2.5 1.4-5 3-7.6 4.6-5.1 3.2-10.1 6.6-15.1 10.3 13.1 2.4 25 8.7 33.8 19.1a119.1 119.1 0 0 1 21.8 32.1 157.1 157.1 0 0 1 18.9-9.9c-5.9-13.1-17.4-27.4-22.3-33.1a83.8 83.8 0 0 0-29.5-23.1ZM934 553.1l-2.5-2.5a243 243 0 0 0-23.5 8.5c12.8 8.3 23 22.2 32.6 34.4 5.6 6.9 11.2 14.9 14.7 23.1.4 1.2.8 2.3 1.3 3.5 7-2 13.9-3.5 20.6-5-.8-2.1-1.7-4.2-2.6-6.3-9.6-20.9-25.3-38.8-40.6-55.7ZM944.1 542.8Zm1 .6ZM999.3 623.9c.1 1.6-.6 1.6 0 0ZM1014.8 594c-7.3-19.4-21.2-36.6-34.8-51.8l-2.6-2.4-3 .6-9.8 2.1c-5.2 1.1-10.8 2.3-16.6 3.7a50.5 50.5 0 0 0 5.7 2.8c16.3 8.1 38.9 39.9 44.1 60.8a35.8 35.8 0 0 0 17-15.8ZM738 748.8a127.4 127.4 0 0 0-9.5-21.8 116.1 116.1 0 0 1-18.6 9.5c9 17.6 12.5 37.1 18.1 56a41.6 41.6 0 0 1 2.6 15q10.5-3.9 20.4-8.7a65.9 65.9 0 0 0-3-12.8c-3.8-12.3-7.2-24.6-10-37.2Z" transform="translate(-159.1 -26.8)" style="fill:silver"/>
    </g>
    <g class="wave_arm">
        <path d="M866.2 125.1c-65.4 3 14.3 170.4-89.6 218.2-66 32-149.4-65.6-208.8-6.2 0 0-14.3-9.1-4.6 41.3s11.4 112.7 11.4 112.7 155.2-12.2 167-14.4l-9.1-24c125.9 32.8 164.7-167.7 154-223.3-7.7-.5-18.6 6.3-33.2-2S837.9 207 837.9 207c10.2 22.3 37.1 19.3 58.5 6.1 6.1-27.8 23.6-89.3-30.2-88Z" transform="translate(-159.1 -26.8)" style="fill:#ccc"/>
        <path d="M837.9 207s.9 12.1 15.4 20.4 25.5 1.5 33.2 2-5.7 91-38.4 164.3-174 48.4-173.1 47l-66.4-3.9 3.4 59.4 102.7-11.8c170.8-16.3 163.4-167.9 181.7-271.3-21.8 13.2-48 16.3-58.5-6.1Z" transform="translate(-159.1 -26.8)" style="fill:#a0a0a0"/>
        <path d="M886.7 182.1c-.5 29.4-38.7 29.4-39.2 0s38.8-29.4 39.2 0Z" transform="translate(-159.1 -26.8)" style="fill:#c1272d"/>
        <path d="M851.7 158.4c.1 11.1-13.1 11.1-13 0s13.1-11 13 0ZM862.7 139.8c.1 11-13.1 11-13 0s13.1-11.1 13 0ZM880.1 136.7c.1 11-13.1 11-13 0s13.1-11.1 13 0ZM896.4 145.2c.2 11-13 11-12.9 0s13.1-11 12.9 0ZM902.9 167c.1 11-13.1 11-12.9 0s13-11.1 12.9 0Z" transform="translate(-159.1 -26.8)" style="fill:#c1272d"/>
    </g>
    <g class="body">
        <path d="M687.8 398.3c-4.2-15.5-6-52.6-22.7-65.2C626.8 304.4 581 317 581 317l7 7.8c-49.4-7.6-124.5 4.3-130 2.4 0 0-124.7-15.6-152.3 9.3-114.1 70.6-121.7 403.8-81.5 515.4 27.2 67.2 39.4 52.9 46.6 71.5s24.2 56.6 59.7 60.9 73.7 6.8 83.7-8.7c16.2-20.5 46.1-18 52.1-18.6 63.2 3.1 27.4 43.7 130.2 27.3 35.5-4.3 52.5-42.2 59.7-60.9s19.4-4.3 46.6-71.5c28-77.7 32.9-263.4-5.5-392.6 1-1.4-6.6-50.2-9.5-61Z" transform="translate(-159.1 -26.8)" style="fill:#ccc"/>
        <ellipse cx="461.6" cy="611.9" rx="225.6" ry="340.6" transform="rotate(-2.4 -266.2 4385.997)" style="fill:#dedede"/>
        <path d="M723.9 610.7c-1.8-78.3-27.8-164.9-27.8-164.9s14.8 124.7 1.2 214.9C676.9 795.1 606.7 901 463.5 901c-171.4 0-234.1-193.9-256.9-321.5-6.6 126.9-10.9 272.7 56.1 332.9 57.6-39.9 116.2 18.5 151.2 63.6 19.7-25.5 74.7-24.9 96.7-3.2 21.6-48.3 112.8-104.9 147-52.3 73-44.8 69.5-243.6 66.3-309.8Z" transform="translate(-159.1 -26.8)" style="fill:silver"/>
    </g>
    <g class="cone">
        <path style="fill:none" d="m259 536.1-.7-.5-.6 1.8 1.3-1.3zM235.3 602.9l.6-.5-.3-.2-.3.7z"/>
        <path style="fill:#c69c6d" d="m223.5 592.6-9 8.9 12.5 10.1 8.3-8.7.3-.7-12.1-9.6zM221.5 643.6l2.2-6.6-5.5-3.1 3.3 9.7zM235.2 581.1l6 4.6 5.1-15-.3-.2-10.8 10.6zM252.4 553l4.9-14.4-10.2 9.9 5.3 4.5zM223.9 592.2l11.9 9.4 5.2-15.3-6.3-4.8-10.8 10.7zM223 529l-15.7 12.4 13.7 10 13.7-12.6L223 529zM211.6 583.3l-7.6 7.5.9 3 9.1 7.3 9-8.8-11.4-9zM188.2 528.2h-5l3.1 9.3 7-5.5-5.1-3.8zM198.1 528.2h-8.9l4.6 3.4 4.3-3.4zM206.8 541.8l-11.7 9.2 14.5 11 10.9-10.2-13.7-10zM209.7 562.7l-10.8 10 12.7 9.8 10.6-10.4-12.5-9.4zM260.8 528.2h-11l8.7 6.8 2.3-6.8zM214.1 601.9l-4.9 4.8 2.9 8.7 6.7 4.9 7.8-8.2-12.5-10.2zM222.7 572.5 212 582.9l11.4 9 10.9-10.7-11.6-8.7zM246.7 549l-12.4 12.2 11.6 8.5 1.2-1.1 5.1-15-5.5-4.6zM221 552.2l-10.9 10.1 12.5 9.4 10.7-10.5-12.3-9zM233.8 560.8l12.5-12.2-11.2-9.4-13.6 12.6 12.3 9zM235.5 538.8l11.2 9.4 11-10.8.6-1.8-9.5-7.4h-1.9l-11.4 10.6zM189.7 547.7l1.8 5.4 2.6-2.1-4.4-3.3zM235.1 538.4l11-10.2H224l-.5.4 11.6 9.8zM234.7 580.8l10.8-10.7-11.7-8.5-10.7 10.5 11.6 8.7zM211.1 583l-12.6-9.9-.3.2 5.6 16.9 7.3-7.2zM193.8 532.3l-7.3 5.7 2.9 8.8 5.2 3.9 11.7-9.3-12.5-9.1zM222.6 528.6l-.5-.4H199l-4.7 3.7 12.5 9.2 15.8-12.5zM194.6 551.4l-2.9 2.3 5.9 17.9.9.7 10.7-9.9-14.6-11zM246.5 570.1l.1-.3-.2.2.1.1zM231.2 615l3.7-10.7-7.4 7.7 3.7 3zM198 572.6v.1-.1zM205.3 594.8 209 606l4.6-4.5-8.3-6.7zM215.3 624.9l2.7 8.2 5.9 3.3 3.2-9.3-8.2-6-3.6 3.8zM219.3 620.6l8 5.9 3.7-10.9-3.9-3.2-7.8 8.2zM212.4 616.3l2.6 7.9 3.4-3.5-6-4.4z"/>
        <path style="fill:#603813" d="m218.2 633.9 5.5 3.1.2-.6-5.9-3.3.2.8zM218.9 621.1l8.2 6 .2-.6-8-5.9-.4.5zM218.8 620.3l-6.7-4.9.3.9 6 4.4.4-.4zM214 601.1l-9.1-7.3.4 1 8.3 6.7.4-.4zM227.1 612.4l3.9 3.2.2-.6-3.7-3-.4.4zM214.1 601.9l12.5 10.2.4-.5-12.5-10.1-.4.4zM212 582.9l-.4.4 11.4 9 .4-.4-11.4-9zM223.5 592.6l12.1 9.6.2-.6-11.9-9.4-.4.4zM198.5 572.3l-.9-.7.4 1v.1l.5-.4zM211.6 582.5l-12.7-9.8-.4.4 12.6 9.9.5-.5zM209.6 562l-14.5-11-.5.4 14.6 11 .4-.4zM194.6 550.7l-5.2-3.9.3.9 4.4 3.3.5-.3zM234.7 581.5l6.3 4.8.2-.6-6-4.6-.5.4zM234.7 580.8l-11.6-8.7-.4.4 11.6 8.7.4-.4zM222.6 571.7l-12.5-9.4-.4.4 12.5 9.4.4-.4zM233.8 560.8l-12.3-9-.5.4 12.3 9 .5-.4zM206.8 541.1l-12.5-9.2-.5.4 12.5 9.1.5-.3zM193.8 531.6l-4.6-3.4h-1l5.1 3.8.5-.4zM233.8 561.6l11.7 8.5.4-.4-11.6-8.5-.5.4zM246 570.5l.3.2.2-.6-.1-.1-.4.5zM221 551.4l-13.7-10-.5.4 13.7 10 .5-.4zM246.3 548.6l.4-.4-11.2-9.4-.4.4 11.2 9.4zM246.7 549l5.5 4.6.2-.6-5.3-4.5-.4.5zM235.1 538.4l-11.6-9.8-.5.4 11.7 9.8.4-.4zM222.1 528.2l.5.4.4-.4h-.9zM258.3 535.6l.2-.6-8.7-6.8h-1l9.5 7.4zM194.3 531.9l4.7-3.7h-.9l-4.3 3.4.5.3zM193.8 532.3l-.5-.3-7 5.5.2.5 7.3-5.7z"/>
        <path style="fill:#603813" d="m193.8 531.6-.5.4.5.3.5-.4-.5-.3zM224 528.2h-.9l.4.4.5-.4zM223 529l-.4-.4-15.8 12.5.5.3L223 529zM194.6 551.4l-.5-.4-2.6 2.1.2.6 2.9-2.3zM206.8 541.8l-.5-.4-11.7 9.3.5.3 11.7-9.2zM194.6 550.7l-.5.3.5.4.5-.4-.5-.3z"/>
        <path style="fill:#603813" d="m206.8 541.1-.5.3.5.4.5-.4-.5-.3zM223 528.2h.1-.1zM223.5 528.6l-.4-.4h-.1l-.4.4.4.4.5-.4zM198.5 573.1l-.5-.4.2.6.3-.2zM235.1 539.2l-.4-.4-13.7 12.6.5.4 13.6-12.6zM221 552.2l-.5-.4-10.9 10.2.5.3 10.9-10.1zM209.7 562.7l-.5-.3-10.7 9.9.4.4 10.8-10zM235.5 538.8l11.4-10.6h-.8l-11 10.2.4.4z"/>
        <path style="fill:#603813" d="m198.5 572.3-.5.4.5.4.4-.4-.4-.4zM209.6 562l-.4.4.5.3.4-.4-.5-.3zM221 551.4l-.5.4.5.4.5-.4-.5-.4zM234.7 538.8l.4.4.4-.4-.4-.4-.4.4zM203.8 590.2l.2.6 7.6-7.5-.5-.3-7.3 7.2zM234.3 561.2l12.4-12.2-.4-.4-12.5 12.2.5.4zM233.8 561.6l-.5-.4-10.7 10.5.5.4 10.7-10.5zM257.3 538.6l.4-1.2-11 10.8.4.3 10.2-9.9zM222.7 572.5l-.5-.4-10.6 10.4.4.4 10.7-10.4z"/>
        <path style="fill:#603813" d="m211.6 582.5-.5.5.5.3.4-.4-.4-.4zM222.6 571.7l-.4.4.5.4.4-.4-.5-.4zM233.3 561.2l.5.4.5-.4-.5-.4-.5.4zM246.7 549l.4-.5-.4-.3-.4.4.4.4zM245.9 569.7l.5.3.2-.2.5-1.2-1.2 1.1zM214.1 601.9l-.5-.4-4.6 4.5.2.7 4.9-4.8zM223.4 591.9l.5.3 10.8-10.7-.4-.3-10.9 10.7zM223.5 592.6l-.5-.3-9 8.8.5.4 9-8.9zM234.7 580.8l.5.3 10.8-10.6-.5-.4-10.8 10.7z"/>
        <path style="fill:#603813" d="m214 601.1-.4.4.5.4.4-.4-.5-.4zM223.4 591.9l-.4.4.5.3.4-.4-.5-.3zM234.3 581.2l.4.3.5-.4-.5-.3-.4.4zM246 570.5l.4-.5-.5-.3-.4.4.5.4zM218.8 620.3l.5.3 7.8-8.2-.5-.3-7.8 8.2zM227 611.6l.5.4 7.4-7.7.4-1.4-8.3 8.7zM218.9 621.1l-.5-.4-3.4 3.5.3.7 3.6-3.8zM218.4 620.7l.5.4.4-.5-.5-.3-.4.4z"/>
        <path style="fill:#603813" d="m227.1 612.4.4-.4-.5-.4-.4.5.5.3z"/>
        <g style="opacity:.48">
            <path d="m418.1 561.8 2.3-6.8h-77.5l3 9.1a97.2 97.2 0 0 1 12.8 5.6c22.5 12.4 29 37.6 31.6 59.6.4 3.8.7 7.7.9 11.6l3.3-9.8.5-1.4.5-.5-.3-.2.2-.6 5.3-15.3.2-.6 5.1-15 .2-.6v-.3l.4-1.2 5.1-15 .2-.6 4.9-14.3.4-1.3 1.3-1.2-.7-.6Z" transform="translate(-159.1 -26.8)" style="fill:#8c6239"/>
        </g>
        <path d="M433.7 538.6a41.2 41.2 0 0 0 2-12.7c0-25.5-23.6-46.1-52.8-46.1s-52.8 20.6-52.8 46.1v1.4a4.2 4.2 0 0 0-1.1 3.2 57.7 57.7 0 0 0 8 26.4l-1.1 1.5c-2.8 4.3-1.9 9.8-1.7 14.6s9.1 6.8 11.1 1.3a17.9 17.9 0 0 1 2-3.9l.8.6a5.8 5.8 0 0 0 9.2-2.1c.1.1.3.2.4.4s2.1 2.2 2.2 4.3a10.3 10.3 0 0 0 3 7.5c2.6 2.6 6.9 1.5 8.9-1a10.9 10.9 0 0 0 1.4-2.3 9.6 9.6 0 0 0 7.8.5 5.6 5.6 0 0 0 2-1.2 42.2 42.2 0 0 1-.7 11.2c-.9 4.9 5 8.4 9.5 4.9s5.4-8.6 5.8-13.5c.1-1.3 0-4.5.8-6.6a6.8 6.8 0 0 0 5.9-.7c-1.6 5.3 6.7 9.3 10.2 4a9.5 9.5 0 0 0 1-1.7l5 1.9a5.8 5.8 0 0 0 6-1.8 4.8 4.8 0 0 0 .4-5.6 16.3 16.3 0 0 0-1.1-1.7c3.2-4.7 6.5-9.4 8.9-14.4s4.2-12-1-14.5Z" transform="translate(-159.1 -26.8)" style="fill:#f0f"/>
        <path d="M433.7 538.6a41.3 41.3 0 0 0-3.8-33.8c-5.2 17.1-21 32.3-38.1 40.4-11.4 5.4-23.9 8.2-36.5 10.6-6.3 1.2-12.9 2.5-19.4 2.5-2.8 4.3-1.9 9.8-1.7 14.6s9.1 6.8 11.1 1.3a17.9 17.9 0 0 1 2-3.9l.8.6a5.8 5.8 0 0 0 9.2-2.1c.1.1.3.2.4.4s2.1 2.2 2.2 4.3a10.3 10.3 0 0 0 3 7.5c2.6 2.6 6.9 1.5 8.9-1a10.9 10.9 0 0 0 1.4-2.3 9.6 9.6 0 0 0 7.8.5 5.6 5.6 0 0 0 2-1.2 42.2 42.2 0 0 1-.7 11.2c-.9 4.9 5 8.4 9.5 4.9s5.4-8.6 5.8-13.5c.1-1.3 0-4.5.8-6.6a6.8 6.8 0 0 0 5.9-.7c-1.6 5.3 6.7 9.3 10.2 4a9.5 9.5 0 0 0 1-1.7l5 1.9a5.8 5.8 0 0 0 6-1.8 4.8 4.8 0 0 0 .4-5.6 16.3 16.3 0 0 0-1.1-1.7c3.2-4.7 6.5-9.4 8.9-14.4s4.2-11.9-1-14.4Z" transform="translate(-159.1 -26.8)" style="fill:#9f1ca3"/>
        <path d="M435.3 482.5c0-25.5-23.6-46.1-52.8-46.1s-52.8 20.6-52.8 46.1a40.8 40.8 0 0 0 3.2 16 2.8 2.8 0 0 1 .1.9 27.5 27.5 0 0 1-5.3 17.3c-2.4 3.4 1.7 9 6.4 7.4a26.8 26.8 0 0 0 11.7-8.4l.6.5a36.2 36.2 0 0 1 1.5 9.3c.1 3.4-.3 6.9.7 10.3a17.5 17.5 0 0 0 5.9 8.4c3.2 2.6 8.1 1.6 9.4-2.2a33.5 33.5 0 0 0 1.9-14c0-.4-.1-.8-.1-1.2a17.8 17.8 0 0 1 4.4 3.2c1.8 2 2.3 4.9 3.3 7.3a13.2 13.2 0 0 0 8.3 7.5c4.3 1.5 7.7-2.8 6.9-6.2a29.3 29.3 0 0 1-.5-2.9c1.9 0 4.3-.8 5.1-2.4s1.8-2.5 3.9-3l1-.3a38.3 38.3 0 0 1 .8 6.8c.2 5.6 9.4 6.9 11.1 1.3l5.5-18.1v-.3a78.8 78.8 0 0 0 6 13.3c2.1 3.8 9.2 2.8 10.3-1.2a50.5 50.5 0 0 0 1.4-19.7c-.4-3.2-1.5-6.5-.6-9.7s1.8-5.7 2.2-8.8a27.4 27.4 0 0 0 .2-6.4 37 37 0 0 0 .3-4.7Z" transform="translate(-159.1 -26.8)" style="fill:#fcee21"/>
        <path d="M402.7 492.2c-12 6.4-25.7 9.7-39.2 12-10.6 1.9-21.3 3.5-31.9 5.1a31 31 0 0 1-3.9 7.4c-2.4 3.4 1.7 9 6.4 7.4a26.8 26.8 0 0 0 11.7-8.4l.6.5a36.2 36.2 0 0 1 1.5 9.3c.1 3.4-.3 6.9.7 10.3a17.5 17.5 0 0 0 5.9 8.4c3.2 2.6 8.1 1.6 9.4-2.2a33.5 33.5 0 0 0 1.9-14c0-.4-.1-.8-.1-1.2a17.8 17.8 0 0 1 4.4 3.2c1.8 2 2.3 4.9 3.3 7.3a13.2 13.2 0 0 0 8.3 7.5c4.3 1.5 7.7-2.8 6.9-6.2a29.3 29.3 0 0 1-.5-2.9c1.9 0 4.3-.8 5.1-2.4s1.8-2.5 3.9-3l1-.3a38.3 38.3 0 0 1 .8 6.8c.2 5.6 9.4 6.9 11.1 1.3l5.5-18.1v-.3a78.8 78.8 0 0 0 6 13.3c2.1 3.8 9.2 2.8 10.3-1.2a50.5 50.5 0 0 0 1.4-19.7c-.4-3.2-1.5-6.5-.6-9.7s1.8-5.7 2.2-8.8a27.4 27.4 0 0 0 .2-6.4 37 37 0 0 0 .2-4.7c0-13.6-6.7-25.9-17.5-34.3a40 40 0 0 1 4.4 14.9c1.2 12.9-7.6 22.8-19.4 29.1Z" transform="translate(-159.1 -26.8)" style="fill:#dbcb35"/>
        <ellipse cx="213" cy="421.8" rx="13.3" ry="8.9" style="fill:#fff"/>
        <ellipse cx="193.4" cy="432.4" rx="6.4" ry="4.3" style="fill:#fff"/>
        <circle cx="180.7" cy="506.6" style="fill:#fff" r="2"/>
    </g>
    <g class="rest_arm">
        <path d="M349.3 311.6s-116.1-9.8-156.8 66-43.8 154.8-11.7 204.6 97.5 91.4 167.2 97 99.3-4 89.5-42.8-34-36.2-51.9-26.2-72.8-17.5-109.8-51-45.6-55.4-45.6-55.4-2.5-29.8 8.6-55.9 110.5-136.3 110.5-136.3Z" transform="translate(-159.1 -26.8)" style="fill:#ccc"/>
        <path d="M186.8 505.4c48.9-13.9 32.1-72.8 71.6-95.7-25 29.8-29.9 62.3-30.1 99.2-8.8-15.8-31.6-9.1-41.5-3.5Z" transform="translate(-159.1 -26.8)" style="fill:silver"/>
        <path d="M436.6 626c-31.7-72.4-40.8 65.4-205.5-116.3-.7-33.1 8-76.2 27.3-98.5-14.6 7.5-38 68.5-33.4 93.3-15.1-15.3-43.7 1-43.2 2.4 62.8-29.7 89.7 98.7 188.5 108.8 17.3 3.8 33.1-12.9 44.7-7.7 97.2 122.5-213.3 70.4-247.9-55.6C181 653.6 462.3 749.3 436.6 626Z" transform="translate(-159.1 -26.8)" style="fill:#a0a0a0"/>
        <path d="M273.7 248.6Zm0 0Z"/>
    </g>
    <g class="head">
        <path d="M459.9 382.5Z" transform="translate(-159.1 -26.8)" style="fill:#b6b6b6"/>
        <path d="m318.7 299.3-.8 30.2c39.6 94.5 232.5 95.7 270-3.6l-1.7-27.8c-47.9 98.5-213.3 92.4-267.5 1.2Z" transform="translate(-159.1 -26.8)" style="fill:#c1272d"/>
        <path d="M305 173.5s-10.2-46.1 2.5-97 12-54.1 30.1-42.3S400.2 91 400.2 91c-38.5-7.5-86.5 49.1-95.2 82.5Z" transform="translate(-159.1 -26.8)" style="fill:#b6b6b6"/>
        <path d="M306.7 152.4c.2 3.8.3-131 27.2-109.6 13.6 8.7 49.1 41.1 49.1 41.1-24.9 4.6-68.9 45.7-76.3 68.5Z" transform="translate(-159.1 -26.8)" style="fill:#841618"/>
        <path d="M409.1 90.4s-20.6 11.1-25.2 13.3 4.2-10.3 1.9-17.4c-3.2-9.7-22.6-30.7-34.8-41.8s58.1 45.9 58.1 45.9Z" transform="translate(-159.1 -26.8)" style="fill:#ccc"/>
        <path d="M602.1 171.8s10.2-46-2.6-97-11.9-54.1-30.1-42.3-62.5 56.9-62.5 56.9c38.4-7.6 86.5 49 95.2 82.4Z" transform="translate(-159.1 -26.8)" style="fill:#b6b6b6"/>
        <path d="M600.3 150.8c-.1 3.7-.2-131-27.2-109.6-13.5 8.6-49.1 41.1-49.1 41.1 24.9 4.5 68.9 45.6 76.3 68.5Z" transform="translate(-159.1 -26.8)" style="fill:#841618"/>
        <path d="M497.9 88.7s20.6 11.2 25.3 13.4-4.3-10.4-1.9-17.4c3.2-9.8 22.5-30.8 34.7-41.8s-58.1 45.8-58.1 45.8Z" transform="translate(-159.1 -26.8)" style="fill:#ccc"/>
        <path d="M611.2 171a46.8 46.8 0 0 1-12.1 10.1c-17.8 9.4-33.9 0-33.9 0a46.1 46.1 0 0 0 30.5-7.7c4.6-3 7.3-8.9 8.9-15.7-18.3-33.5-47.9-59.7-90.1-72.3-2.6 1-5.4 2.2-8.4 3.7-11.9 5.9-29.7 30.6-29.7 30.6s3.3-20 11.9-34.9c1-1.7 1.9-3.3 2.8-4.7a214.9 214.9 0 0 0-26.3-2.6c7.9.6 15.7 1.6 15.7 1.6s-7.4 4-9.4 9.8c-10.8 30.7-13.9 71.7-13.9 71.7s-5.8-43.3-19.6-71.3c-1.8-3.6-8.9-10.5-8.9-10.5s6.9-.8 14.6-1.4a217.1 217.1 0 0 0-22 1.9l3.3 5.5c8.6 14.9 11.9 34.9 11.9 34.9S418.7 95 406.8 89.1a69.2 69.2 0 0 0-11.1-4.6c-44 12.2-74.7 39-93.5 73.4 1.6 7.1 4.4 13.2 9 16.4a45.9 45.9 0 0 0 30.6 7.6s-16.1 9.4-33.9 0a45.4 45.4 0 0 1-12.4-10.3 201.2 201.2 0 0 0-14.5 55.7c-5.8 50.1 20 134.4 165.4 143.4v.6l7.1-.3 7.1.3v-.6c145.4-9 171.2-93.3 165.4-143.4a198.8 198.8 0 0 0-14.8-56.3Z" transform="translate(-159.1 -26.8)" style="fill:#ccc"/>
        <path d="M271.5 383.3ZM251.5 442ZM337.5 390.8c-.8 50.6-76.2 50.6-77.1 0 .9-50.7 76.3-50.7 77.1 0Z"/>
        <path d="M494.7 417.6c-.8 48.1-72.4 48.1-73.2 0 .8-48.2 72.4-48.2 73.2 0Z" transform="translate(-159.1 -26.8)" style="fill:#fbcc34"/>
        <path d="m323.7 399.6-11.1-5.2c1.2-3.3 2.5-5.9 2.2-8.3l11.6 3.6-9-8.2-2.6-13.9c-6.3-.3-5.7.4-11.1-3.1l-8.3 9.1-12.8 2.5 10.6 3.3c-.6 1.6-1.2 3.5-1.7 5-6.1-2.9-10.9-5.2-11.7-5.7.8 1.1 3.4 11.5 3.4 11.5s-6.8 11.4-14 22.5c10.9 17.3 40.2 20.1 54.6 5.6l-3-14.7Zm-21.4-16 1.3.4-.7 2.3-1.4-.4Zm5.3 10.3-.9-.3-.4 1.2-4.7-1.6.4-1.1-.9-.3.3-1.1 1.1.3-.3 1.1 4.3 1.4.3-1.1 1.2.4Zm-1-4-.4.9-2.3-.8.3-.9 1.1.4 1.5-4.5 1.2.4Zm4-1.1-1.4-.4.7-2.3 1.4.4Z"/>
        <path d="m464.4 416.3-1.1-.4-.3.9 2.3.8 1.8-5.4-1.2-.4Z" transform="translate(-159.1 -26.8)" style="fill:#fff"/>
        <path transform="rotate(-71.9 363.93 508.004)" style="fill:#fff" d="M460.4 411h2.4v1.45h-2.4z"/>
        <path transform="rotate(-71.9 371.585 510.504)" style="fill:#fff" d="M468.1 413.5h2.4v1.45h-2.4z"/>
        <path style="fill:#fff" d="m306.5 393.5-4.3-1.4.3-1.1-1.1-.4-.3 1.1.9.3-.4 1.2 4.7 1.5.4-1.1.9.3.4-1.1-1.1-.4-.4 1.1z"/>
        <path d="M437.7 89.3c13.8 28 19.6 71.3 19.6 71.3s3.2-41 13.9-71.7c2.1-5.8 9.4-9.8 9.4-9.8s-7.8-1-15.6-1.6c-3.7-.2-7.5-.2-11.4-.2h-10.1c-7.7.6-14.6 1.4-14.6 1.4s7.1 7 8.8 10.6ZM436.6 119.7s-3.3-20-11.8-34.9c-1.2-2-2.3-3.9-3.4-5.5a181.1 181.1 0 0 0-25.6 5.2 69.2 69.2 0 0 1 11.1 4.6c11.9 5.9 29.7 30.6 29.7 30.6ZM476.6 119.7s17.8-24.7 29.7-30.6a74.5 74.5 0 0 1 8.4-3.7 182.1 182.1 0 0 0-23.4-5.3l-2.9 4.7c-8.6 14.9-11.8 34.9-11.8 34.9Z" transform="translate(-159.1 -26.8)" style="fill:#aaa"/>
        <path d="M308 181.9c17.8 9.4 34 0 34 0a45.9 45.9 0 0 1-30.6-7.6c-4.7-3.2-7.4-9.3-9-16.4a144.5 144.5 0 0 0-6.7 13.7c3.8 4.3 7.9 8 12.3 10.3ZM595.9 173.4a46.4 46.4 0 0 1-30.6 7.7s16.1 9.4 34 0a46.4 46.4 0 0 0 12-10.1c-2-4.5-4.2-9-6.5-13.3-1.6 6.8-4.4 12.7-8.9 15.7ZM459.6 347.8c-98.8 2.8-154.3-62.1-179.1-114.7-1.9 50.6 28.7 126.3 166 134.7v.6l7.1-.2 7.2.2v-.6c136.3-8.4 167.4-83 166-133.6-22.2 50.4-64.8 110.7-167.2 113.6Z" transform="translate(-159.1 -26.8)" style="fill:silver"/>
        <path d="M624 225.2s-34.6 16.1-62.8 35c-17 11.4-24.3 36.6-40.9 24.2-44.2-32.8-44.3-52.3-65.4-51.7s-22.1 18.9-66.3 51.7c-20.4 15.3-32.6-12.8-52.7-29.6-23.4-19.6-53.3-29.6-53.3-29.6s-4.5 49.5 31.9 83.4c54.6 50.8 130.6 45.8 140 45 9.3.8 85.3 5.8 140-45 36.3-33.9 29.5-83.4 29.5-83.4Z" transform="translate(-159.1 -26.8)" style="fill:#dedede"/>
        <path d="M309.8 251c-9.7.2-12.3-8.2-12.6-9.2v-18c0-.7-.8-.8-1.2-.5s-.6-.3-1 .5v18c-.3 1-2.9 9.4-12.6 9.2s-10.6-6.1-14-8.9c1.9 4.6 2.9 9.4 14 10.3 9 .3 12.7-6.9 13.7-9.4a14.1 14.1 0 0 0 13.4 9.4c11.1-.7 12.4-5.6 14.3-10.3-3.4 2.8-3.6 8.3-14 8.9Z"/>
        <path d="M454.9 252.2c8.7-4.4 11.4-9.1 10.7-12s-5.1-4.9-9.7-4.9h-2c-4.6 0-8.9 1.9-9.7 4.9s2 7.6 10.7 12Z" transform="translate(-159.1 -26.8)" style="fill:#ba7c97"/>
        <path d="M455.6 238.1c8.7-4.4 10.7 5 10 2.1s-5.1-4.9-9.7-4.9h-2c-4.6 0-8.9 1.9-9.7 4.9s1.8-6.6 10.4-2.2Z" transform="translate(-159.1 -26.8)" style="fill:#f8a5c9"/>
        <path d="M396.2 246.5c-.5 32.2-44.2 32.2-44.7 0s44.2-32.2 44.7 0Z" transform="translate(-159.1 -26.8)" style="fill:#d2b3b3;opacity:.5"/>
        <path d="M225.6 213.4c-.4 0-37.2-18.4-37.5-18.5a1 1 0 0 1-.4-1.2.7.7 0 0 1 1-.4l37.3 18.4a.9.9 0 0 1-.4 1.7ZM226.8 219.7l-41.3-1a1 1 0 0 1-.8-.9.9.9 0 0 1 .8-.9l41.4 1.1c1 0 1 1.7-.1 1.7ZM189.4 246.1a.9.9 0 0 1-.4-1.7l35.3-20a.8.8 0 0 1 1.1.4.9.9 0 0 1-.3 1.1c-.5.2-35.2 20.2-35.7 20.2Z"/>
        <path d="M507.2 246.5c.5 32.2 44.2 32.2 44.7 0s-44.2-32.2-44.7 0Z" transform="translate(-159.1 -26.8)" style="fill:#d2b3b3;opacity:.5"/>
        <path d="M359.5 213.4c.4 0 37.2-18.4 37.6-18.5a1 1 0 0 0 .4-1.2.8.8 0 0 0-1.1-.4l-37.2 18.4a.9.9 0 0 0 .3 1.7ZM358.3 219.7l41.4-1a1 1 0 0 0 .8-.9c-.1-.5-.4-.9-.9-.9l-41.3 1.1c-1 0-1 1.7 0 1.7ZM395.8 246.1a.9.9 0 0 0 .4-1.7l-35.4-20a.7.7 0 0 0-1 .4.8.8 0 0 0 .3 1.1c.5.2 35.2 20.2 35.7 20.2Z"/>
        <path d="M430.2 286.8a144.5 144.5 0 0 0 38.4 2 63.2 63.2 0 0 0 12.4-2.3 9.6 9.6 0 0 1-4.3 3.1c-12.3 5.7-37.2 4.4-46.5-2.8Z" transform="translate(-159.1 -26.8)" style="fill:silver"/>
    </g>
    <g class="closed_eyes">
        <path d="M323 173c24.4 7.8 49.7 2.1 71.9-9.1-16.1 21-51.6 27.6-71.9 9.1ZM269.8 173c-24.4 7.8-49.6 2.1-71.9-9.1 16.2 21 51.6 27.6 71.9 9.1Z"/>
    </g>
    <g class="open_eyes">
        <path d="M271.1 169.4c-23.8 7.7-47.7 4-69.5-6.8-.4-.2-.9.5-1.3.3 16.1 20.9 52.6 27.3 72.8 8.8Z"/>
        <path d="M434.3 189.1a61.5 61.5 0 0 0-20-24 32.1 32.1 0 0 0-10.7-6.4c-12.3-4.3-31.1 1.6-44.9 17.7-5.9 27.3 46.3 40.8 71.8 21.5l-.6-3c5.7 16.5 3.6 48.4 3.6 48.4l6.2-6s5.7-23.9-5.4-48.2Z" transform="translate(-159.1 -26.8)" style="fill:#aaa"/>
        <path d="M430.2 196.8c-20.9 16.2-54.8 10.6-64.8-11.4 17.9-37 57.7-21.4 64.8 11.4Z" transform="translate(-159.1 -26.8)" style="fill:#fcee21"/>
        <path d="M429.6 196.8c-21 16.2-54.9 10.6-64.8-11.4l5.9-9.3c8.9 30.5 37 36.2 54.1 8.4Z" transform="translate(-159.1 -26.8)" style="fill:#f7931e"/>
        <path d="M271.3 170.5c-4.3-34.4-44.9-53.3-65.7-15.2-4.6 8.2-14.7 8.9-14.7 8.9s9.1 1 13.8-3.5 17.1-21.6 18.2-16.5c-3.7 6.6-2.5 26.3 2 31.7-.1 0 4.1 3 13.6 3.7s11.6-1 11.6-1 6.2-7.3 7.8-15.3-.3-14.4 1.1-13.6c4.1 2.3 12.3 20.8 12.3 20.8Z"/>
        <path d="M385.9 179.2c-.1 7.4 6.4 7.4 6.3 0s-6.4-7.5-6.3 0Z" transform="translate(-159.1 -26.8)" style="fill:#fff"/>
        <path d="M322.1 169.4c23.8 7.7 47.7 4 69.5-6.8.4-.2.9.5 1.3.3-16.1 20.9-52.6 27.3-72.8 8.8Z"/>
        <path d="M477.1 189.1a62.3 62.3 0 0 1 20-24 32.1 32.1 0 0 1 10.7-6.4c12.3-4.3 31.1 1.6 44.9 17.7 5.9 27.3-46.3 40.8-71.8 21.5l.6-3c-5.7 16.5-3.5 48.4-3.5 48.4l-6.3-6s-5.7-23.9 5.4-48.2Z" transform="translate(-159.1 -26.8)" style="fill:#aaa"/>
        <path d="M481.2 196.8c20.9 16.2 54.8 10.6 64.8-11.4-17.9-37-57.7-21.4-64.8 11.4Z" transform="translate(-159.1 -26.8)" style="fill:#fcee21"/>
        <path d="M481.8 196.8c21 16.2 54.9 10.6 64.8-11.4l-5.9-9.3c-8.9 30.5-37 36.2-54.1 8.4Z" transform="translate(-159.1 -26.8)" style="fill:#f7931e"/>
        <path d="M321.9 170.5c4.3-34.4 44.9-53.3 65.7-15.2 4.6 8.2 14.7 8.9 14.7 8.9s-9.1 1-13.8-3.5-17.1-21.6-18.2-16.5c3.7 6.6 2.5 26.3-1.9 31.7 0 0-4.2 3-13.7 3.7s-11.6-1-11.6-1-6.2-7.3-7.8-15.3.3-14.4-1.1-13.6c-4.1 2.3-12.3 20.8-12.3 20.8Z"/>
        <path d="M525.5 179.2c.1 7.4-6.4 7.4-6.3 0s6.4-7.5 6.3 0Z" transform="translate(-159.1 -26.8)" style="fill:#fff"/>
    </g>
</svg>
